<?xml version="1.0" encoding="UTF-8"?>
<svg version="1.1" viewBox="0 0 1040 1200" width="260" height="300" xmlns="http://www.w3.org/2000/svg">
<path transform="translate(0)" d="m0 0h1040v1200h-1040z" fill="#FAFAFA"/>
<path transform="translate(194,20)" d="m0 0h76l182 1 10 3 10 8 8 12 2 8 1 10v39h74l10-9 20-20 1-4-4-2-11-11-1-4 2-4 8-1h55l3 1 1 5v45l-1 15-1 2-6-1-10-8-5-5v-2h-3l-1 3-5 4-25 25v68h16l2 1 1 5v83l-2 7-3 2h-14v20l7 1 11 6 7 7 7 14 1 4v172l72 1 2 1v9l-356 1h-257l-78-1v-10l183-1h148v-35h-258l-10-3-6-4-6-7-3-10-1-158-11-8-8-9-8-14-4-14v-18l3-11 5-12 5-9-1-4-4-4-1-2v-11l1-10 5-5 14-7 5-1v-29l1-15 3-6 6-7 6-4 8-2h125v-37h-27l-5-2-1-3v-7l3-9 6-10 10-8 5-3z" fill="#3F538D"/>
<path transform="translate(867,610)" d="m0 0 49 14 36 12 29 12 17 8 16 10 11 9 7 8 5 9v7l-5 16-9 19-12 19-12 17-16 21-14 17-10 11-9 11-14 15-11 12-11 11-7 8-10 10-4 13-9 43-5 32-2 19-3 46-2 42-1 35v38l2 37v9h-270l2-30 1-21v-44l-4-86-3-42-5-38-4-22h-1v8l5 30 4 39 2 32 1 21v21l-8 18-9 15-9 12-6 7-12 9-11 4h-14l-16-6-14-8-12-9-10-8-10-9-12-11-12-12-7-8-10-11-18-22-5-7v-3l6-3 13-10 11-12 10-14 6-11 4 2 19 19 8 7 10 9 11 9 9 8 13 10 16 12 19 12 5 1-3-3-16-10-19-14-5-4 1-9 12-46 10-36 11-40 6-18 7-14 8-10 9-8 16-8 22-6 27-6 5-11 4-6 12-9 8-10 6-5 5-2h6v23h-3l-2-5-1-9-3-2 3 17 6 11 8 10 9 10 17 14 11 9 2 2v4l-5 1h-12l-2-8-7 1-4 4-16-7-13-8-11-8-13-12-4-1 7 8 10 9 15 10 15 8 12 5 1 2 1-8 5 1 2 8 6-1h8l6-2 1-5-4-7-2-4 11-7 14-11 7-7 9-13 5-13 3-12h-3v5l-4 2 1-9-1-1v-5l7 1 8 7 5 4 14 7 2 2v7l-7 14-9 11-13 11-16 10-7 2-3-1v101l-4 1v-101l1-2h4l-1-2h-7l-2 13 1 1 1 93h10v-98l3-3 16-8 13-10 9-8 10-14 4-11 1-9 21-9 22-10 12-8 14-12 10-9 22-22 7-8 12-12 6 2 9 6 1-3-5-2-9-6-20-12-18-10-23-11-22-10-9-5v-3l10 3 1-9 3-20z" fill="#FDCA8A"/>
<path transform="translate(731,552)" d="m0 0h12l20 7 22 11 14 10 10 8 4 3v2l4 2 9 8 10 5 17 4 2-5 2-2 9 1 31 8 23 7 9 3 16 5 12 5 16 6 15 7 14 7 16 10 3 2v2l4 2 9 9 6 9v512h-167l-2-22-1-24v-38l1-35 3-57 3-43 5-34 9-44 3-12 3-6 15-15 7-8 13-13 7-8 12-13 9-11 11-12 8-10 14-18 13-18 11-17 9-16 8-19 2-8v-7l-6-10-8-9-11-8-13-8-21-10-36-14-31-10-42-12v19l-4 25-1 4-10-2 3 3 17 8 18 8 38 20 18 11 12 8 1 3-2 1-13-8-4 2-15 15-7 8-24 24-11 9-10 8-16 9-25 11-10 3v9l-4 11-8 11-8 9-17 13-17 9-1 1v94l-1 4-2 1h-8l-1-1-1-93-1-4 3-10 7-1 1 3h-4l-1 103 3-1 1-101 7-1 11-6 13-9 10-9 8-11 5-11v-7l-10-6-8-4-8-8-9-3 2 8-2 7 3-2 1-5h3l-2 12-5 13-7 10-9 10-12 10-12 8h-2l6 8 1 7-3 3-5 1h-13l-1 2-2-10-5-1v10l-3-4-13-5-15-8-15-11-10-9-6-7 1-2 5 3 7 7 10 8 14 9 16 8 6 2 3-4 7-1 2 7v2l17-1-2-5-14-12-10-8-10-9-10-12-8-14-2-9v-8l4 2 2 12 2 2 1-23-8 2-6 3-9 10-5 5-10 8-4 8-3 7-9 3-31 7-12 4-14 7-11 10-9 14-6 15-10 35-13 48-12 45-2 8v5l17 13 14 9 11 7v2h-5l-19-12-16-12-16-13-11-9-13-12-8-7-10-9-14-14h-2l-8 15-11 13-10 11-12 9-5 1 4 7 7 9 12 14 7 8 18 20 12 12 8 7 13 11 15 11 16 9 14 5h14l11-4 9-7 5-5 8-9 9-14 8-16 4-9v-21l-2-42-4-43-5-32-1-5v-8h3l6 35 4 36 3 50 3 67v44l-2 39-1 11-4 1v-18l2-42v-40l-1-21-1-1-5 11-4 8-7 11-8 10-8 7-5 4-14 7-5 1h-11l-14-4-17-9-14-10-11-9-24-22-16-17-9-10-9-11-13-16-7-9-3-6v-20l-5-7-5-5-9-10-7-10-7-14-3-10-1-19-7-8-5-7-3-10-1-11 4-1 4-3h4l-1-10 3-6 11-5 4-8 7-4h4l-7-12-6-11-9-16-4-12 1-8 3-4h6l4 3v2h2l5 6v2h2l1 4h2l10 16 7 10 6 11 11 20 4 8 5 5 4 8 3 17v21l-4 20v9l6 11 8 11 2 3 3-1-1-5-8-3v-3h7l6 4 17 17 2 1v2l4 2 7 7 10 8v2l4 2 11 10 13 10 1-8 11-42 7-27 7-24 10-35 6-17 10-15 9-9 11-7 12-5 16-5 28-6 3-1 3-9 7-9 9-6 8-10 5-5 9-4h5l-3-5-6-9-5-12-4-16-11-6-6-7-3-12 2-10 2-3-1-5-4-14v-22l1-5-4-1-1 3h-6l2-4 5-4 3-8 3-14 4-15 7-14 10-11 5-5 10-7 5-2v-2l11-9 10-6z" fill="#3C1919"/>
<path transform="translate(1039,703)" d="m0 0h1v497h-164l-2-32v-76l2-25 3-62 2-22 3-24 8-44 6-25 7-8 8-8 7-8 12-12 7-8 8-8 7-8 12-14 7-8 13-16 13-17 11-15 12-19 8-15z" fill="#FAFAFA"/>
<path transform="translate(333,327)" d="m0 0h252l10 4 7 8 3 6 1 6v169l-14 1h-248l-1-1-1-171-2-9-7-11z" fill="#F8F8F8"/>
<path transform="translate(209,31)" d="m0 0h241l8 3 9 8 4 9v137l-16 16-8 7-3 3-4-2-7-8-42-42-6-3-8 7-17 17h-2l-1 3-7 6-40 40-4-2-7-8-19-19-7-4-9 7-51 51-4 2z" fill="#F9F9F9"/>
<path transform="translate(684,4)" d="m0 0h2l1 113v346l1 58h-59l-12-1-1-172-4-11-6-9-7-6-11-5-4-1v-20l14-1 3-3 1-5v-88l-18-1-1-68 26-26h2l1-3 3-3h3l7 8 8 6 6 2 1-17v-49l4-4 6-7 4-4h2l2-4h2l2-4 16-16z" fill="#C1D4EB"/>
<path transform="translate(678,595)" d="m0 0 2 3h29l9 1 3 3 4 12 1 1-1-9-1-6 14 1 11 3v3l-7 4-4 6-2 8 2-1 4-9 9-6h8l16 10 22 16 15 10 13 6v14l-4 18-5 11-7-1-9 3-1 3 9-3 7 1 5 4 2 6-1 10-3 6-5 5-8 3-1-2h2l-1-2h-3l-2 16-5 15-6 11-11 13-11 8-13 7-12 2-14-3-11-6-9-7-9-8-9-14-5-15-4-19-3-2 1 7-9-4-5-7-2-7v-7l3-6 9-3 10 1v-2l-8-2-10 1-3-5-3-17-1-13-2-1 1-7-2-3 4-10 6-24 5-13z" fill="#FBD6BA"/>
<path transform="translate(902,131)" d="m0 0h10l31 5 29 6 12 5 10 9 6 10 2 8v10l-3 10-6 8-8 5-8 1-6-2-4-4-2-5 1-6 4-4 9-5-1-8-3-4v-2l-5-2-9-3-35-7-22-3-2 5-1 2v7l5 9 5 3 12 3 18 3 10 3 4 4v9l-6 6-10-1-19-3-16-4h-4l10 10 6 3 36 8 9 4 7 6 5 10 1 4v13l-4 10-7 6-5 3h-10l-15-3-6-2 3 10 9 4 23 4 12 6 7 8 4 11v13l-3 8-5 6-8 5-22-2-10-3 4 9 3 3 11 4 23 4 8 4 7 8 2 5v13l-3 8 10 1 26 5 7 3 5 5v6h-2l-2 4-3 2-13-1-29-5-16-3-33-6h-4l-1 7 1 3 4 2 11 5 13 4 3 4v8l-5 4-7-1-13-4-14-8-8-10-3-10v-11l3-4-1-5-6-10-1-3v-15l4-6 5-4-1-6-1-2-1-9-1-3-5-2-7-9-4-10v-15l6-10 4-3-3-9-1-11-4-2-5-5-5-7-3-8v-13l3-8v-4l-7-8v-2h-2l-9-13-4-4-9-2-15-4-10-7-7-10-2-5v-18l4-7 8-6 6-2h8l8 4 9 10 5 10v3h2v-9l5-8 8-7z" fill="#050305"/>
<path transform="translate(86,139)" d="m0 0h110l1 1v131l-7 8-26 26-8 7-35 35-1 2v56l1 11 5 1 10-8 58-58h3l1 39 3 9 4 8 5 6 10 6 13 4 99 1v24h-245l-1-1v-125l17-1 14-3 17-8 10-8 8-9 7-12 4-11 2-9v-15l-2-11-4-12-5-9-10-14-8-8-11-7-11-5-13-3-14-1-1-1z" fill="#F9F9F9"/>
<path transform="translate(77,669)" d="m0 0 10 1 14 4 11 7 7 7 5 8 1 4v8l-3 7-1 3 7 10 3 7v12l-6 8-4 2 2 8 1 2 1 9 4 4 5 4 6 9 2 7v16l-6 9-3 3 1 5 2 4 1 12 4 1 5 4 6 10 3 11-2 12-2 5h-2l5 5 12 14 7 10 19 4 10 4 2 1v2l4 1 7 9 3 9v14l-4 8-7 6-5 2h-11l-7-3-7-7-6-10-1-5h-2v8l-4 8-9 8-8 3h-17l-34-5-20-4-11-4-10-8-7-11-2-7v-17l6-10 10-8 7-1 9 3 4 8v5l-7 6-6 3v10l5 6 10 4 33 6 26 3 1-3h2l1-10-4-8-5-4-10-3-13-2-18-4-5-5v-9l5-4h15l33 6h2l-5-5v-2l-12-6-28-5-14-4-10-9-5-9-1-4v-14l5-10 7-6 6-2h8l9 2 12 3-2-8-4-4-9-3-19-3-11-4-8-8-5-9-1-4v-12l3-9 5-6 4-3 11-2 15 2 9 2-2-9-4-2-11-4-24-4-8-4-7-8-3-9 2-13 2-3-21-3-20-4-6-5-1-2v-6l6-6h8l54 9 27 4h7l1-8-14-7-15-5-4-4-1-2v-6z" fill="#060405"/>
<path transform="translate(15,247)" d="m0 0h1l2 15 4 12 7 12 9 10 10 7 1 158 3 10 7 8 9 4 5 1 258 1v35l-13 1h-317l2-1-1-12v-204l1-55h9l2 1z" fill="#C1D4EB"/>
<path transform="translate(385,233)" d="m0 0 7 6 25 25 7 6v2l4 2v2l4 2v2l4 2 7 6 7-4 20-20h2l-1 51-174 1-9 3-6 3-9 8-4 7-3 7-1 3-1 43-3 7-4 6-7 6-8 3h-13l-11-6-6-8-3-9v-52l8-9 5-4 5-6 5-5 13-12 28-28 4 2 4 5 5 5 5 4 7 8 6 5v2l6 2 8-7 3-3h2l2-4h2l2-4h2l1-3 8-7z" fill="#FAFAFA"/>
<path transform="translate(592,57)" d="m0 0 37 1 1 2v14l-1 19-5-2-5-5-5 1-12 11-26 26-8 7-41 41h-2l-2 4h-2l-2 4h-2l-2 4h-2l-2 4h-2l-2 4h-2l-2 4h-2l-2 4h-2l-2 4h-2v2l-8 7-15 15-3 4h-2v2h-2v2l-8 7-10 10-4-1-4-4v-2l-4-2-30-30-2-1v-2h-2v-2h-2v-2h-2v-2l-4-2-4-5-3-1-2 4-10 9-61 61-4-1-16-16-2-1v-2h-2v-2h-2v-2l-4-2-6-7-4 1-31 31h-2l-2 4-32 32-8 7-62 62-4-1 1-19 3-5 114-114 6-5 19-19 3 1 7 8 23 23 4 1 8-6 67-67 4 2 7 8 8 7v2l4 2 11 11 7 8 14 14 5 1 12-11 73-73 8-7 37-37 5-6 7-6 7-8 6-5 3-5h-2l-7-8z" fill="#F9F8F8"/>
<path transform="translate(731,552)" d="m0 0h12l20 7 22 11 14 10 10 8 4 3v2l4 2 9 8 10 5 17 4 2-5 2-2 9 1 31 8 23 7 9 3 16 5 12 5 16 6 15 7 14 7 16 10 3 2v2l4 2 9 9 6 9v15l-11 27-10 18-13 19-16 21-13 16-7 8-12 14-9 10-7 8-8 8-7 8-12 12-7 8-8 8-3 10-4 17-8 44-4 33-3 51-2 36-1 13v76l1 16v16h-3l-2-22-1-24v-38l1-35 3-57 3-43 5-34 9-44 3-12 3-6 15-15 7-8 13-13 7-8 12-13 9-11 11-12 8-10 14-18 13-18 11-17 9-16 8-19 2-8v-7l-6-10-8-9-11-8-13-8-21-10-36-14-31-10-42-12v19l-4 25-1 4-10-2 4 5v2l-5-1-2-4v-4l-17-2-4-1v11l-5 22-4 9 2 4 3 5v15l-4 8-6 5-6 3h-4l-4 18-7 16-5 5-4-1 6-8 5-11 4-16 1-10 4-1 1 4 8-4h2l2-4 3-9-1-10-5-5-7-1-9 2 1-4 9-3 5 1 2 1 3-9 4-14 1-6v-14l-12-5-12-8-11-8-17-12-13-8h-8l-8 5-5 10h-3l3-10 5-6 6-3-3-2-15-3-7-1 3 10v6l-4-4-3-12-13-1h-27l-2-3-6 9-6 18-5 20-4 9h-2l-1 3h-6l2-4 5-4 3-8 3-14 4-15 7-14 10-11 5-5 10-7 5-2v-2l11-9 10-6z" fill="#1D1015"/>
<path transform="translate(829,652)" d="m0 0 17 2 4 1 3 8 16 7 10 5 21 10 17 9 22 13-1 4-7 7-7 8-13 14-5 5-16 15h-2v2l-4 3h-2v2l-15 10-14 7-15 6-12 6h-3v2h-6l-14-7-7-8v-2l-10-1 1-4 7-10 6-14 4-16 1-2 10-4 5-4 4-8v-15l-5-7 3-9 4-15 2-9z" fill="#F9F9F9"/>
<path transform="translate(267,711)" d="m0 0h10l12 4 11 7 7 8 4 8v13l-3 4 1 5 7 14 1 8-4 6-3 1 6 11 5 13 1 4v14l-2 10-7 7-8 4h-15l-20-4-7-3-8-7-5-10v-14l4-8 8-7 3-1h10l9 4 4 4v2l3 1 4 8 1 4v13l5-1 5-5v-12l-6-12-1-3-4-2-11-4-47-9-20-4-7-3-3-5v-5l4-5 6-1 32 6 35 6 15 1-2-7-7-5-17-4-23-4-37-7-7-3-4-5 1-7 4-4 21 3 41 7 10 2 17 1-5-8-10-6-13-4-4-5v-6z" fill="#070406"/>
<path transform="translate(741,259)" d="m0 0h11l26 6 10 6 6 9 2 6v12l-5 9-10 7-6 1-10-3-6-4-6-7-3-9v-12l1-3-8 3-3 4v13l5 10 5 5v2l4 1 23 5 31 7 23 5 5 4 1 2v7l-4 4h-12l-25-5-16-3-10-2-14-3-11-2 2 8 8 6 18 5 39 8 23 5 5 3 2 3v6l-4 5-6 1-20-4-42-8-21-3 3 7 7 6 16 6 5 5v5l-5 4-9-1-14-5-9-7-6-7-3-8v-13l4-8-3-1-5-10-1-6v-9l2-4 3-2-1-4-8-16-2-9v-8l2-10 3-6 11-8z" fill="#060405"/>
<path transform="translate(722,142)" d="m0 0h9l34 7 32 7 11 3 5 5 2 3v5l-7 7-14-2-25-5-18-4-16-3-11-1 1 7 7 8 13 5 30 7 26 5 13 4 5 5 1 2v6l-6 6-13-1-43-9-21-4h-7v8l6 7 9 4 22 5 38 8 12 3 6 4 2 3v7l-5 6-4 1-24-5-19-4-10-2-21-5-8-4-7-4-8-9-5-10-2-11 1-10 3-6 2-2-1-4-7-9-3-8v-13l3-5 7-6z" fill="#050305"/>
<path transform="translate(229,852)" d="m0 0 5 1 1 1 30 5 38 8 12 5 3 2v2l4 2 7 8 4 8 1 3v17l-3 7-1 4 9 12 2 8v11l-4 7-5 4-4 2h-15l-69-13-7-4-4-6v-5l5-6h10l52 10 9 2 14 1-1-11-4-2-8-5-22-5-43-8-11-3-5-4-2-4v-6l4-5 6-1 37 7 24 5 17 2 3-1v-6l-4-7-9-5-28-6-43-8-8-3-5-6v-7l5-5z" fill="#060406"/>
<path transform="translate(389,857)" d="m0 0 13 4 15 6 7 6 4 13 1 8v21l-4 24 1 8 6 11 8 12 5 4-2 5-5 8h-2l-1 4-12 13-9 7h-3l-3-7-10-14-9-10-7-8-10-14-7-15-2-12v-11l11-2 3-6 8-4 4-5 9-5 1-4 1-13 2 1 1 3v11l-8 16-5 12-1 15h3l-1-8 3-12 10-18 2-8v-8l-3-6-10-7-3-3-2-5z" fill="#FBD4B8"/>
<path transform="translate(60,309)" d="m0 0 13 3 2 2 1 143 2 1 253 1v14l-248 1-15-1-8-7-1-3v-150z" fill="#4DDEFC"/>
<path transform="translate(733,555)" d="m0 0 12 1 17 6 21 11 14 10 15 13 12 10 9 5 18 4 12 1 1 1v18l-3 17-5 1-34-6-12-6-20-14-14-10-14-9-14-7-14-3-26-2 2-1 1-6 8-3 16-1 13 2 14 5 8 3-4-4-14-6-9-2h-22l-10 3-3 2-2 8h-13l-2-1 1-5 10-7 11-5 13-4h16l15 4 14 5v-3l-5-2-20-6-6-1h-9l-14 3-17 7-8 5-3 5-1 4-5 1-1-4 4-6 9-7 9-3v-2l12-5 12-3h18l14 4 12 5 1-4-10-3-18-5-5-1h-8l-22 5-2-1 11-6 8-3z" fill="#FAD5B9"/>
<path transform="translate(627,59)" d="m0 0 3 1v14l-1 19-5-2-5-5-5 1-12 11-26 26-8 7-41 41h-2l-2 4h-2l-2 4h-2l-2 4h-2l-2 4h-2l-2 4h-2l-2 4h-2l-2 4h-2l-2 4h-2v2l-8 7-15 15-3 4h-2v2h-2v2l-8 7-10 10-4-1-4-4v-2l-4-2-30-30-2-1v-2h-2v-2h-2v-2h-2v-2l-4-2-4-5-3-1-2 4-10 9-61 61-4-1-16-16-2-1v-2h-2v-2h-2v-2l-4-2-6-7-4 1-31 31h-2l-2 4-32 32-8 7-62 62-4-1v-7l2-4 6-4 54-54h2l2-4 8-7 41-41 3-4h2v-2l5-5 3-1 2-4 4-2 3-5 6-3 5 2 1 3 3 1 6 7 8 7 12 12 4-1 7-8 8-7 42-42 3-4h2l2-4 5-4 5-3 3 1 7 8 45 45 1 2 5-1 5-6 7-6 7-8 8-8 8-7 5-5h2l2-5 11-11h3l1-4 8-7 11-12 10-10 7-8 18-18h2l2-4 4-4h2v-2l5-5 8-7 22-22 2-3h2v-2h2v-2l8-7z" fill="#F0B061"/>
<path transform="translate(543,191)" d="m0 0h3l-1 27-8 2v72l3 3 6 2v16l-4 2h-58l-1-1v-62l7-8z" fill="#F6F7F7"/>
<path transform="translate(361,783)" d="m0 0h6l4 3v2h2l5 6v2h2l1 4h2l10 16 7 10 6 11 11 20 4 8 5 5 4 8 3 17v21l-5 24h-2l-2 4 1-13 3-16v-21l-3-16-3-6-5-4-20-8-7-2-1 1 1 7 3 5 12 9 2 5v8l-3 10-9 16-3 12v8h-3v-15l6-14 7-14v-11l-1-3-2 16-10 6-5 6-4 2h-3l-2 6-4 2h-8l-1 3v-2h-2l-13-17-3-10-1-11 4-1 4-3h4l-1-10 3-6 11-5 4-8 7-4h4l-7-12-6-11-9-16-4-12 1-8z" fill="#432022"/>
<path transform="translate(829,145)" d="m0 0h2v20l5 10 5 6 8 5 15 4 9 2 5 5 8 11v2h2l7 9 2 4-3 5-1 4v13l4 9 5 8 7 5 1 2 2 12 2 6-5 4-5 9v15l5 11 5 7 5 3 2 3 1 9 2 5-1 4-3 3h-2l-2 5-1 1v15l6 12 2 2-1 5-2 3v11l3 10 8 10 15 8 12 3 5 2-5 4-1 2-9 1-8-3-8-2-3-1v-2h-5l12 7 6 2v1l-8-1-12-6-10-9-6-12v-5l2 3 5 8 2 1-3-10-2-7-1-14-5-3-2-3-1-5v-13l4-7 6-8-2-2-2-12v-2l-4-2-6-5-6-12 1-4 4 4-2-13v-11l5-8 3-1v-2l-3 1-5-16-9-10-6-12v-6l2 1 4 8v-4l-4-11 1-8 1-4-4-6-11-13-8-10-8-4-9-4-7-4-1-3-3-1-5-6-4-8-2-14 1-8 2-4z" fill="#BCBDBF"/>
<path transform="translate(84,665)" d="m0 0h13l13 5 10 7 6 7 6 10 2 5 2 8 7 16 1 10-1 4-4 4-2 3h-2l2 11 1 5v2l1 3h2l9 12 5 12v13l-2 1v-7l-3-2 3-1-3-7-5-3-1-2 1 6 5 10 2 9-5 10 2 12v4l1 5h2 1 2l7 10 5 13v13h-1l-1-5-2 1 1 13 8 9 10 13 6 7 16 2 16 8 8 9 2 5v4h2l-1 3-2-1v6l1 6h-2l-1 6-4 6-6 3v-17l-4-11-6-7-3-1v-2l-9-3-11-3-11-2-10-13-10-12-4-3v-2l2-1 3-13-2-11-5-10-5-5-5-3-1-2-1-10-3-6 1-4 7-9 1-2v-16l-3-9-7-9-6-4-1-2-1-9-2-4v-6l6-5 3-5v-12l-5-10-5-7 2-4 2-6v-8l-3-8-10-11-10-6-21-6z" fill="#D1D1D0"/>
<path transform="translate(297,327)" d="m0 0h15l8 4 8 9 3 6 1 8v58h-66v-3l6-10 2-6 1-43 4-10 6-7z" fill="#7086B1"/>
<path transform="translate(678,595)" d="m0 0 2 3h29l9 1 3 3 4 12 1 1-1-9-1-6 14 1 11 3v3l-7 4-4 6-2 9-12 2-9 4-5 4-5 9-5 14v3l10-4 12-1 3 1-1 3-12 1-11 4-4 4-5 12-5 7-5 3-2 3h-7l-6 1-3-5-3-17-1-13-2-1 1-7-2-3 4-10 6-24 5-13z" fill="#CA8E66"/>
<path transform="translate(624,176)" d="m0 0h10l5 1 1 7v96l-1 13-2 2-6 1h-17l-3-1-2-5v-107l2-6z" fill="#41548D"/>
<path transform="translate(751,609)" d="m0 0h8l16 10 22 16 15 10 13 6v14l-4 18-5 11-7-1-7 1-7-3-5-5v-2l-5-2-8-9-6-11-3-1-9 1v-3l3-1h7l-4-13-7-14-3-2h-10l-1-3h-7l4-9 5-5z" fill="#CA8E66"/>
<path transform="translate(702,784)" d="m0 0 5 2 10 7 10 5 11 3h9l14-4 10-7 6-4h3v14l-1 2 2 1v7l-6 10-8 10-10 9-18 13-5-2-13-11-4-3v-2h-2v-2l-4-2-8-10-4-6 2-10z" fill="#FBD6BA"/>
<path transform="translate(857,605)" d="m0 0 9 1 31 8 23 7 9 3 16 5 12 5 16 6 15 7 14 7 16 10 3 2v2l4 2 9 9 6 9v15l-11 27-10 18-13 19-16 21-13 16-7 8-12 14-9 10-7 8-8 8-7 8-12 12-7 8-8 8-3 10-4 17-8 44-4 33-3 51-2 36-1 13v76l1 16v16h-3l-2-22-1-24v-38l1-35 3-57 3-43 5-34 9-44 3-12 3-6 15-15 7-8 13-13 7-8 12-13 9-11 11-12 8-10 14-18 13-18 11-17 9-16 8-19 2-8v-7l-6-10-8-9-11-8-13-8-21-10-36-14-31-10-42-12-1 6-2-1-1 1-13-1 4-1v-2l-4 1-2-2h4l2-5z" fill="#3D2024"/>
<path transform="translate(83,253)" d="m0 0h48l2 1-1 9-8 16-7 8-9 7-10 5-12 3h-11l-12-3-10-4-6-4v-4l15-14 5-6 8-7z" fill="#ECA061"/>
<path transform="translate(857,661)" d="m0 0 5 2 24 11 32 16 21 12 11 7 9 6 1 3-2 1-13-8-4 2-15 15-7 8-24 24-11 9-10 8-16 9-25 11-10 3v9l-4 11-8 11-8 9-17 13-17 9-1 1v94l-1 4-2 1h-8l-1-1-1-93-1-4 3-10 7-1 1 3h-4l-1 103 3-1 1-101 7-1 11-6 13-9 10-9 8-11 5-11v-7l-10-6-8-4-8-8-9-3 2 8-2 7 3-2 1-5h3l-2 12-5 13-4-1 2-11-3-1 1-5 1-11-6 3-12 8-8 3-7 2h-9l-13-4-10-5-11-8v-2l-5-1 2-4 4 2 12 9 14 7 12 2 11-2 15-8 11-9 5-6 4-1-2 5-1 3h7l3 1 6 8 4 3 10 4 7 2v-2l14-6 26-12 10-6 7-5h2v-2l4-3h2v-2l8-7 11-10 5-5 14-15 2-3h2l2-4 6-6v-3l-23-13-17-9-23-11-20-9z" fill="#190E12"/>
<path transform="translate(692,783)" d="m0 0h6v23h-3l-2-5-1-9-3-2 3 17 6 11 8 10 9 10 17 14 11 9 2 2v4l-5 1h-12l-2-8-7 1-4 4-16-7-13-8-11-8-13-12-4-2-2 1-3-4 4-10 4-6 12-9 8-10 6-5z" fill="#FAC788"/>
<path transform="translate(589,916)" d="m0 0 2 1 6 35 4 36 3 50 3 67v44l-2 39-1 11-4 1v-18l2-42v-40l-1-21-1-1-5 11-4 8-7 11-8 10-8 7-5 4-14 7-5 1h-11l-14-4-17-9-14-10-11-9-24-22-16-17-9-10-9-11-13-16-7-9-3-6v-20l-5-7-5-5-9-10-7-10-7-14-3-10v-17h2l2 10 2 12 8 16 9 13 12 13 10 13 6 9v4l5-1-1 5-7 4h-2l4 7 7 9 12 14 7 8 18 20 12 12 8 7 13 11 15 11 16 9 14 5h14l11-4 9-7 5-5 8-9 9-14 8-16 4-9v-21l-2-42-4-43-5-32-1-5v-8z" fill="#43262D"/>
<path transform="translate(73,112)" d="m0 0h123l1 2-1 14h-120l-1 29-1 1-15 2v-24l1-15 3-5 5-3z" fill="#4BDEFC"/>
<path transform="translate(243,52)" d="m0 0h203l2 1v11h-216l-1-8 1-3z" fill="#4B5C8E"/>
<path transform="translate(83,897)" d="m0 0 4 1 4 5 3 2 1 7-2 2v9l4 4 22 5 13 2 8 3 6 7 2 5v6l-2 4-3 3h-11l-27-4-21-4-10-4-6-7v-10l7-4 6-5-1-7-2-5-9-3h-5l4-6 10-5z" fill="#F7F8F8"/>
<path transform="translate(383,849)" d="m0 0 5 3 1 2-3 3v9l4 9v2l5 1 3 4v8l1-7h1v11l-2 5-9 5-5 6-4 2h-3l-2 6-4 2h-8l-1 3v-2h-2l-13-17-3-10-1-11 4-1 4-3h4l-1-10 3-6 11-5 3-5 2 1 4-3z" fill="#431C1C"/>
<path transform="translate(904,153)" d="m0 0h10l38 7 15 4 8 4 4 6 1 8-8 5-5 2-1 8 3 7 3 2 9 1 3 1-5 5-8 5-9 1-5-2-4-6v-8l1-2v-9l-3-3-16-4-20-4-7-3-5-5-3-6v-7z" fill="#F6F7F7"/>
<path transform="translate(369,395)" d="m0 0h213l1 1v8l-4 2h-210l-3-1v-9z" fill="#62739F"/>
<path transform="translate(233,91)" d="m0 0h215v10l-2 1h-213l-1-1v-9z" fill="#455A92"/>
<path transform="translate(373,38)" d="m0 0h51l25 5v2l-7 4-6 1v1l-28 1h-131l-29-1v-2l-9-2 3-2 11-1 20-4h28l47-1z" fill="#F9F2ED"/>
<path transform="translate(707,153)" d="m0 0 1 2v13l4 9 6 8 1 4-3 3-3 10 1 12 4 10 6 9 7 6 9 4 18 5 7 2 17 3 21 4 13 3-3 6-4 2-3 3-11-2-16-5-6-2v2l-7-1 1-2-6-2-12-2-8-1h-8l-10-4-11-8-9-12-2-6-1-16 3-7 3-6-7-8-4-8-1-8h3l1-2-1-7 4-6z" fill="#C1C2C3"/>
<path transform="translate(435,486)" d="m0 0h145l2 1v10h-212l-3-1-1-9z" fill="#20387E"/>
<path transform="translate(395,440)" d="m0 0h53l134 1v10h-216v-10z" fill="#3F528B"/>
<path transform="translate(238,128)" d="m0 0h210v7l-1 3-172 1h-42l-1-1v-9z" fill="#455890"/>
<path transform="translate(369,349)" d="m0 0h213l1 1v8l-1 1h-216l-1-7 1-2z" fill="#3E528D"/>
<path transform="translate(639,825)" d="m0 0h5l-4 2-3 1 2 2-26 6-12 4-14 7-11 10-9 14-6 15-10 35-13 48-12 45-2 8v5l17 13 14 9 11 7v2h-5l-19-12-16-12-16-13-11-9-13-12-8-7-10-9-14-14h-2l-8 15-11 13-10 11-5 4-3-1 3-5 8-7 9-10 1-3 4-4 4-7-2-4-5-5-10-16-2-4v-7h3l3 9 9 14 5 7 3-1-1-5-8-3v-3h7l6 4 17 17 2 1v2l4 2 7 7 10 8v2l4 2 11 10 13 10 1-8 11-42 7-27 7-24 10-35 6-17 10-15 9-9 11-7 12-5 16-5z" fill="#120B10"/>
<path transform="translate(570,143)" d="m0 0h2v171l-1 1h-13l-2-5v-11l2-3 6-1 1-3 1-72-9-1-1-3v-21l1-38 5-6h2v-2l5-5z" fill="#4ADEFC"/>
<path transform="translate(731,552)" d="m0 0h12l20 7 22 11 14 10 10 8 4 3v2l4 2 9 8 10 5 13 4 6 1v2h-10l-14-4-11-7-12-11-11-9-14-10-21-11-17-6-12-1-16 6-7 4 22-5h8l20 5 13 5-1 4-4-1-17-6-5-1h-18l-12 3-10 4h-2v2l-12 6-7 6-2 4v3h5l1-6 5-5 10-6 16-6 11-2h9l17 4 10 4 4 2v3l-6-1-18-6-5-1h-16l-18 6-11 6-3 3h-2l-1 5 5 2 11 1v1h-27l-2-3-6 9-6 18-5 20-4 9h-2l-1 3h-6l2-4 5-4 3-8 3-14 4-15 7-14 10-11 5-5 10-7 5-2v-2l11-9 10-6z" fill="#3E1D1E"/>
<path transform="translate(500,242)" d="m0 0h27l2 2v47l-3 5h-23l-3-1-2-4v-46z" fill="#3E528D"/>
<path transform="translate(274,705)" d="m0 0 11 1 14 6 10 9 6 8 4 9 2 9 6 16v11l-3 3 1 6 6 12 4 16v8l-3 9-7 9-5 3 1-9v-14l-4-13-6-11-1-4 4-3 2-5-2-10-6-11-1-5 3-4v-13l-5-9-6-7-12-7-10-3-8-1z" fill="#CDCDCD"/>
<path transform="translate(37,216)" d="m0 0 5 2v2l4 2 15 15 6 5v2l4 2-1 5-12 12-6 7-8 7-4 4-3-1-4-6-5-12-1-5v-14l3-13z" fill="#F9F9F9"/>
<path transform="translate(60,309)" d="m0 0 13 3 2 2v137h-1v-11l-3 1-6-12-4-18v-45l1-21v-17l-3-15z" fill="#49DEFC"/>
<path transform="translate(726,270)" d="m0 0 1 3-2 7-1 4v8l2 9 8 16 1 4-4 2-1 4v9l2 8 4 8 2 1-1 4-2 6v11l4 10 7 7 8 5 16 5 4 2-5 4h-8l-13-5-9-6-8-9v-2h-2l-1-8h-2v-13h-2v-2h-2l-4-7-1-5v-12l4-5-1-6-7-14-2-9v-8l2 4 3 12v-3l-1-6 1-2h-2l-1-14 5-10z" fill="#D0D0CF"/>
<path transform="translate(86,195)" d="m0 0 11 3 14 7 10 9 8 12 3 8 1 8h-47z" fill="#4ADEFC"/>
<path transform="translate(240,848)" d="m0 0h5l3 2 14 3 2-1v2h11l14 2 21 6 14 7 10 10 5 9 2 7v4h2v14l9 15 2 5v4h-2l1 6-3 8-7 6-3 1v-15l-4-9-7-9 1-4 3-7v-17l-4-9-6-8-5-4v-2l-15-6-43-9-25-4-5-3 1-2z" fill="#878A92"/>
<path transform="translate(719,863)" d="m0 0 5 1 2 8h2v120l-1 5-2 1h-6l-4-3v-21l2-103h1z" fill="#482020"/>
<path transform="translate(779,464)" d="m0 0 10 1 29 6 36 8 6 4 3 4v6l-6 5-12-1-10-3-9-2-39-10-11-4-1-1v-9z" fill="#070507"/>
<path transform="translate(84,665)" d="m0 0h13l13 5 10 7 6 7 6 10 2 5 2 8 7 16 1 10-1 4-4 4-2 3h-2l2 11 1 5v2l1 3h2l9 12 5 12v13l-2 1v-7l-3-2 3-1-3-7-5-3-1-2-2 2-8-10-3-3-5-12v-5l4-6v-12l-5-10-5-7 2-4 2-6v-8l-3-8-10-11-10-6-21-6z" fill="#D1D1D0"/>
<path transform="translate(184,616)" d="m0 0h7l48 11 26 7 3 4 2 1-6 9h-9l-38-7-25-5-8-3-4-4-1-2v-6z" fill="#070406"/>
<path transform="translate(125,754)" d="m0 0 2 4 5 12v2l4 2 8 11 6 12 2 9-5 10 2 12v4l1 5h2 1 2l7 10 5 13v13h-1l-1-5-4 1-2-7v8l-2-2-1-6-5 2-6-10-5-4-3-1-1-2-1-10-3-6 1-4 7-9 1-2v-16l-3-9-7-9-6-4-1-2-1-9-2-4v-6z" fill="#D3D3D2"/>
<path transform="translate(589,916)" d="m0 0 2 1 6 35 4 36 3 50 3 67v44l-2 39-1 11-4 1v-18l2-42v-40l-1-21-1-1-5 11-4 8-7 11-8 10-8 7-5 4-12 6-3-1 11-6 5-5 5-4 9-11 7-10 7-12 8-18v-21l-2-42-4-43-5-32-1-5v-8z" fill="#441C1C"/>
<path transform="translate(916,865)" d="m0 0 3 3-14 15-6 7-4 15-6 31-5 29-4 40-3 62-2 25v76l1 16v16h-3l-2-22-1-24v-38l1-35 3-57 3-43 5-34 9-44 3-12 3-6 15-15z" fill="#48282F"/>
<path transform="translate(720,741)" d="m0 0 27 1h19l-3 14-5 10-3 5-7 4h-10l-7-3-7-9-5-12-1-9z" fill="#CA8E65"/>
<path transform="translate(362,787)" d="m0 0 5 1 9 9 12 17 8 13 10 17 9 17 3 3-5-1-20-8-4-5-10-20-12-21-5-11-1-10z" fill="#F8D1B4"/>
<path transform="translate(772,471)" d="m0 0h3l1 6 11 4 39 10 11 3 18 4-3 5-3 2h-3v3h-8l-49-12-24-7-2-1 2-10z" fill="#C1C2C3"/>
<path transform="translate(938,409)" d="m0 0 10 1 28 5 44 8 12 2v1h-5v2l2 1-4 3-5 1h-9l9 2v2l-21-3-26-4-14-3-18-7h-3l-2-3 1-7z" fill="#D2D2D1"/>
<path transform="translate(24,681)" d="m0 0 17 1v2l11 1 1-1h7l19 4 10 4 9 2h5l4 3v8l-1 1-13-1-39-6-43-7 5-4 5-5z" fill="#BBBCBF"/>
<path transform="translate(904,153)" d="m0 0h10l38 7 15 4 8 4 4 6 1 8-8 5-3 1-4-2-3-7-7-3-16-4-11-2-1-1-19-2-5-5-1-6z" fill="#CCCDCD"/>
<path transform="translate(78,927)" d="m0 0v3 3l4 1 4 3v2l-4-1-5-1 2 4 8 1 2-1 6 2v2l6 1 1-2 31 3 5 2 6 1 2 1 2-2v6l-2 4-3 3h-11l-27-4-21-4-10-4-6-7v-10l7-4z" fill="#B7B8BB"/>
<path transform="translate(707,153)" d="m0 0 1 2v13l4 9 6 8 1 4-3 3-4 13v16l3 5 3 1 2 9h2l5 5 7 4 17 5 36 7 16 4 7 1 1 2-3 1-32-6-22-5-18-5-9-4-8-6-8-10-4-8-2-5-1-15 2-4-7-8-4-8-1-8h3l1-2-1-7 4-6z" fill="#D1D1D0"/>
<path transform="translate(857,661)" d="m0 0 5 2 24 11 32 16 21 12 11 7 9 6 1 3-2 1-13-8-4 2-15 15-7 8-24 24-11 9-10 8-16 9-25 11-10 3v9h-1l-1-6-1-3h-2v-2h5v-2l14-6 26-12 10-6 7-5h2v-2l4-3h2v-2l8-7 11-10 5-5 14-15 2-3h2l2-4 6-6v-3l-23-13-17-9-23-11-20-9z" fill="#25171B"/>
<path transform="translate(196,21)" d="m0 0h256l2 2-15 1-72 1-3 2-29 1-59-1v-2l-63-1h-1l-2-1-14-1z" fill="#20387E"/>
<path transform="translate(60,320)" d="m0 0 2 2 1 11v12l-1 30v36l5 21 5 8h2l2 17 2 1 9 1-2 1-1 3-6 2 1 6 14 2v1l-25-1-8-7-1-3v-127z" fill="#68DAFA"/>
<path transform="translate(689,790)" d="m0 0 4 2 2 12 1 4h3l1 6 8 11 5 6 2 1v2h2v2l4 2 9 8 7 5 5-2 17-13 10-9 9-13 4 1-2 5-9 11-7 7-15 11-6 4h-2l6 8 1 7-3 3-5 1h-13l-1 2-2-10-5-1v10l-3-4-13-5-15-8-15-11-10-9-6-7 1-2 5 3 7 7 10 8 14 9 16 8 6 2 3-4 7-1 2 7v2l17-1-2-5-14-12-10-8-10-9-10-12-8-14-2-9z" fill="#170B0D"/>
<path transform="translate(749,369)" d="m0 0 14 1 20 3 23 5 16 3 12 3-7 7-6 1 3 2-11-1-26-5-12-2-9-3v2l-7-2-9-8z" fill="#C1C2C3"/>
<path transform="translate(69,167)" d="m0 0h6v24l-1 22-5-2-15-14-15-15-1-3 5-3 18-7z" fill="#EB9F61"/>
<path transform="translate(724,164)" d="m0 0h11l27 5 13 3 20 4 12 3-4 4-6 5-5 1-26-5-29-7-7-2-2-2-2 1-2-3z" fill="#C1C2C3"/>
<path transform="translate(745,334)" d="m0 0 18 2 14 3 40 8 14 2v1h-5l1 3-4 4h-2v2h-7l-2-1h-7l-12-3-17-3-16-4-8-3-4-1-3-4z" fill="#848890"/>
<path transform="translate(730,204)" d="m0 0 14 1 57 12 12 2-5 4-4 4-3 1h-11l-29-6-21-5-8-4h-3v-8z" fill="#C1C2C3"/>
<path transform="translate(372,522)" d="m0 0h200v2l-41 1h-10l3 2h-37v2h-3v-2h-7v2h-40v-1l-54-1 1-2-6 1-7-2z" fill="#20387E"/>
<path transform="translate(483,112)" d="m0 0h63v2l-16 14h-47z" fill="#4ADEFC"/>
<path transform="translate(759,853)" d="m0 0h5l1 3h-4l-1 103 3-1 1-101 9-1-3 3h-5l1 5h1l1 20v73l-1 4-2 1h-8l-1-1-1-93-1-4 3-10z" fill="#452935"/>
<path transform="translate(432,397)" d="m0 0 5 1 10-1h3 115l-1 3-4 1v1l-12 1h-143l-1-3h7l2-1z" fill="#20387E"/>
<path transform="translate(221,756)" d="m0 0h9l31 5 25 5 6 1 1-2 5 4 2 7-1 1-15-1-24-4-43-8 1-5z" fill="#848890"/>
<path transform="translate(857,605)" d="m0 0 9 1 31 8 23 7 9 3 16 5 12 5 16 6 15 7 14 7 16 10 1 2-5 1-13-8-15-8-24-10-27-10-32-10-35-10-1 6-2-1-1 1-13-1 4-1v-2l-4 1-2-2h4l2-5z" fill="#292036"/>
<path transform="translate(383,849)" d="m0 0 5 3 1 2-3 3v9l4 9v2l5 1 3 4v7l-3 7-4 4-5-1-5-6-6-14-4-17 1-6 7-6z" fill="#F7D1B4"/>
<path transform="translate(829,145)" d="m0 0h2v20l5 10 5 6 8 5 15 4 7 1-4 2v2l4 2 3 2 2 4 5 5 4 6 3 5 5 3-1 4-2-1v-2l-4-2-7-9-8-11-6-2-18-3-8-4-9-8-4-6-1-5h-2l-2-12 1-8 2-4z" fill="#BBBDBF"/>
<path transform="translate(426,442)" d="m0 0h85l-2 2-9 1-2-1h-12l-2 1h26l4 1-2-1v-3h17l-3 2-3 1 3 2-1 2 6-1h49l1 2-161 1-2-2 19-1v-2l12-1-1-1h-18l-4 1z" fill="#253D80"/>
<path transform="translate(511,441)" d="m0 0h71v10h-161v-1l148-1h-44v-2l-3-2 4-2-14-1 3 4-3 1-4-1h-24l-1-2 6-1h10l4 1 7-1z" fill="#3A4E8B"/>
<path transform="translate(435,486)" d="m0 0h145v1l-144 1-25 1-4 2h-8v2l-4 1 10 1 160 1v1h-195l-3-1-1-9z" fill="#616F95"/>
<path transform="translate(274,705)" d="m0 0 11 1 14 6 10 9 6 8 3 8v5l-2 4h-2l6 20 2 9-2 6h-2v5h-3l1-5-2-10-6-11-1-5 3-4v-13l-5-9-6-7-12-7-10-3-8-1z" fill="#7D8CAB"/>
<path transform="translate(483,139)" d="m0 0h35l-2 4-20 20-8 7-5 4z" fill="#F8F8F8"/>
<path transform="translate(903,295)" d="m0 0 1 4v16l5 11 5 7 5 3 2 3 1 9 2 5-1 4-3 3h-2l-1 2v-2h-3l-5-16-6-7-7-14-2-6v-11l5-8z" fill="#BDBEC0"/>
<path transform="translate(342,899)" d="m0 0h1v14l9 15 2 5v4h-2l1 6-3 8-7 6-3 1v-15l-4-9-7-9 1-4 6-9h2v-2h2l1-4z" fill="#C1C2C2"/>
<path transform="translate(154,878)" d="m0 0 6 2v4l-2 1 2 7 9 11 7 11v2l13 3 12 2 8 4 9 8 4 8-2 2-4-6v-2h-4l-4-3h-4v-2l-9-3-11-3-11-2-10-13-10-12-4-3v-2l2-1z" fill="#B7B9BC"/>
<path transform="translate(214,724)" d="m0 0 16 2 14 3 25 4 20 2 1-2 5 6 1 4h-18l-9-2-6-1-39-7-14-2v-3z" fill="#868990"/>
<path transform="translate(721,864)" d="m0 0h3v130l-4 1-1-1v-98l1-9z" fill="#D3CDCA"/>
<path transform="translate(922,304)" d="m0 0h13l24 4 6 3 4 4v6l-3 4-4 1h-7l-5-6-5-5-2-1-10 1-5 4-4-1-4-5v-6z" fill="#B9BBBE"/>
<path transform="translate(911,234)" d="m0 0h13l26 4 7 5 1 2v8l-3 2h-13l-5-8-5-3h-10l-5 5-5-2-3-4v-6z" fill="#BBBDBF"/>
<path transform="translate(93,860)" d="m0 0h9l5 5 4 6 2 1h9l5-3 2-3 4 2 4 4 1 4-1 4-4 2-20-2-12-1-9-4-4-4v-7z" fill="#B0B3B7"/>
<path transform="translate(81,790)" d="m0 0h9l4 4 4 6 6 2 7-1 6-4 2-1 5 5 2 6-3 4h-16l-21-3-6-3-4-5 1-7z" fill="#BBBDBF"/>
<path transform="translate(621,187)" d="m0 0h6v97l-1 1h-5z" fill="#7086B0"/>
<path transform="translate(363,863)" d="m0 0h5l6 21 6 12 5 6v4l-5 2-7-1-7-8-5-10-4-15v-5z" fill="#F6D0B4"/>
<path transform="translate(197,611)" d="m0 0 8 1 30 7 35 10 6 4v2h-4l-1 3-4 1-2-5-10-2-59-14-10-2 4-2z" fill="#868A91"/>
<path transform="translate(195,607)" d="m0 0 16 1 14 2 30 7 18 5 7 3-1 5-3 4-6-4-28-8-40-10-9 1-5 2 6-7z" fill="#C0C1C2"/>
<path transform="translate(271,792)" d="m0 0 17 3 8 4 5 5 6 12v12l-7 7-5-1v-13l-4-10-7-8-9-4-8-1 4-2z" fill="#BCBEC0"/>
<path transform="translate(239,889)" d="m0 0 17 2 50 9 10 2 2 5-5 2-15-2-24-5-25-5-12-2-2-2z" fill="#888B91"/>
<path transform="translate(237,846)" d="m0 0h11l15 2v2l3-1 6 2 14 3 14 1 12 3-6-2v-1l9 1 10 4 10 8 7 9 3 6-4-2h-1l-1 2-3-2-1-4h-3l-7-6-10-6-21-7-9-2-21-2h-3l-15-4-1-1-8 1-4 1v-3z" fill="#CECFCE"/>
<path transform="translate(938,409)" d="m0 0 10 1 28 5 44 8 12 2v1h-5v2l2 1-1 1h-8l-51-10-11-1-7-2h-9l-4 3-2-3 1-7z" fill="#ABAEB6"/>
<path transform="translate(824,173)" d="m0 0 2 2 3 6 6 7 7 5 9 3 16 2 5 3 8 11 8 10 2 8-3 1-2-1-1 2h-2l-9-11-13-16-8-4-9-4-7-4-1-3-3-1-5-6-4-8z" fill="#D1D1D0"/>
<path transform="translate(601,1071)" d="m0 0h1l1 5 2-1 1 9 1 21v44l-2 39-1 11-4 1v-18l2-42v-40l-1-21-1-6z" fill="#452731"/>
<path transform="translate(246,929)" d="m0 0 11 1 46 9 16 2 4 5v2h-14l-9-2-52-10-8-1 5-5z" fill="#868990"/>
<path transform="translate(385,168)" d="m0 0 6 4v2h2v2h2l5 5 1 3 4 2v2l4 2v2l3 1 5 6v2l4 2v2h2l6 7-1 3-6-7-16-16-8-7-9-9-2-3-4 2-55 55h-5l4-6h2l2-4 45-45z" fill="#2D4380"/>
<path transform="translate(772,471)" d="m0 0h3l1 6 11 4 39 10 11 3 18 4-3 5-9-1-51-13-20-6-1-3-3-1 1-5z" fill="#848993"/>
<path transform="translate(250,924)" d="m0 0h9l25 4 26 6 6 1 1-2 5 4 2 5v4l-3 1-2-5-27-4-46-9 4-4z" fill="#BFC0C2"/>
<path transform="translate(747,277)" d="m0 0h4v15l4 11 8 7 7 3 5 1-3 3h-5l-3 1-10-2-4-2v-2l-3-1-4-5-4-9v-13l4-5z" fill="#B8BABD"/>
<path transform="translate(84,665)" d="m0 0h13l13 5 10 7 6 7 6 10 2 5v5l-2-1-1 4h-2l-3-7h-2l-3-8-10-11-10-6-21-6z" fill="#C2C3C5"/>
<path transform="translate(938,375)" d="m0 0h12l19 4 9 4v5l-4 4-16-1-16-4-3-2v-2l-3-1v-5z" fill="#CBCCCE"/>
<path transform="translate(71,724)" d="m0 0h7l15 2 11 4 3 2 1 7-2 2-21-2-16-3-4-4 1-4z" fill="#909398"/>
<path transform="translate(731,360)" d="m0 0 4 3v11l4 10 7 7 8 5 16 5 4 2-5 4h-8l-13-5-9-6-8-9v-2h-2l-2-8v-13l3-1z" fill="#888C93"/>
<path transform="translate(247,884)" d="m0 0h10l14 3 11 2 9 2 16 4 5 2 3-3 4 7-1 5-2-1v-2l-10-2-50-9-16-3 5-4z" fill="#D2D2D1"/>
<path transform="translate(749,369)" d="m0 0 14 1 20 3 23 5 16 3 12 3-4 4-14-1-22-5-24-4-18-2-3-3z" fill="#82868F"/>
<path transform="translate(729,164)" d="m0 0 12 1 21 4 13 3 20 4 12 3-4 4-4 1-38-8-22-4-10-2-1-3h-2v-2z" fill="#888B92"/>
<path transform="translate(360,921)" d="m0 0h2l2 10 2 12 8 16 9 13 12 13 10 13 6 9v5l-4-2-4-7-1-3h-2v15l-2 1v-2h-2v-20l-5-7-5-5-9-10-7-10-7-14-3-10z" fill="#442022"/>
<path transform="translate(720,741)" d="m0 0 27 1h19l-3 14-5 10-3 5-7 4h-10l-7-3-7-9-5-12-1-9zm3 4 1 9 6 12 6 5 3 1h7l5-3 5-6 4-9 1-8h-20z" fill="#461D1D"/>
<path transform="translate(659,659)" d="m0 0 2 2 2 20 3 12 1 3 6-2 7 1 6 2-1 3-10-1-9 3-2 5v7l3 9 5 5 6 3v-6l4 2 5 23 2 8h-2l-4-12-1-7-6-4-8-4-6-7-3-12 2-10 2-3-1-5-4-14v-20z" fill="#411E22"/>
<path transform="translate(714,194)" d="m0 0v3l-2 8v16l3 5 3 1 2 9h2l5 5 7 4 17 5 36 7 16 4 7 1 1 2-3 1-32-6-22-5-18-5-9-4-8-6-8-10-4-8-1-4v-12l2-1 2-7 2-2z" fill="#7B8498"/>
<path transform="translate(234,129)" d="m0 0h213v5l-4-3h-39l-13 1h-106l-4-1-17 1-3-1-2 1-6-1-4 1h-16z" fill="#20387E"/>
<path transform="translate(386,848)" d="m0 0 4 2 3 4 13 5v3l-7-1-9-3-1 1 1 7 3 5 12 9 2 5v8l-3 10-9 16-3 12v8h-3v-15l6-14 7-14v-11l-1-3-1 1-2 9-1-3v-7l-3-4-4-1-5-11v-9l3-4-3-4z" fill="#461D1D"/>
<path transform="translate(352,882)" d="m0 0 4 1 8 18 5 6 6 5-1 3-3 2h-8l-7-6-6-10-3-9v-6z" fill="#F5CFB2"/>
<path transform="translate(270,241)" d="m0 0v3l-73 73h-2l-1 2-4 3h-2l-2 4-7 6-5 6h-2l-2 4h-2l-2 4-14 14h-2l2-4 50-50 8-7 56-56z" fill="#20387E"/>
<path transform="translate(585,207)" d="m0 0 5 1v76h-5l-1-1v-63z" fill="#848992"/>
<path transform="translate(747,625)" d="m0 0h9l6 4 5 10 7 18 2 2 10 4 2 2v3l-5-1-4-3h-2l6 9 5 6 8 4 12 2 1 3-4 1h-7l-13-7-8-9-6-11-3-1-9 1v-3l3-1h7l-4-13-7-14-3-2h-9z" fill="#1D0C0D"/>
<path transform="translate(726,270)" d="m0 0 1 3-2 7-1 4v8l2 9 8 16 1 4-4 2-1 2-5-6-8-17v-4h-2v-6h-2l1-8 6-9z" fill="#BABBBC"/>
<path transform="translate(711,205)" d="m0 0 2 2 2 11 6 11 6 7 7 4 8 4 21 5 10 2 29 6 14 3-3 5-4-1 1-1-47-10-15-3-14-4-11-7-1-3h-2l-2-5-1-4-2 1-4-7z" fill="#AAADB2"/>
<path transform="translate(47,174)" d="m0 0h5l4 12 3 6v2l6 1 3 3h3l1-5h1l1 20-5-2-15-14-15-15-1-3 5-3z" fill="#EEAE60"/>
<path transform="translate(728,566)" d="m0 0h18l14 4 9 4 1 2-1 2h3v2l-5-1-10-4-17-4h-9l-14 3-17 7-8 5-3 5-1 4-5 1-1-4 4-6 9-7 9-3v-2l12-5z" fill="#EDCEB8"/>
<path transform="translate(745,337)" d="m0 0 8 4 23 4 21 4 2 1 13 2 12 3-1 2h-2v2h-7l-2-1h-7l-12-3-17-3-16-4-8-3-4-1-3-4z" fill="#C1C2C2"/>
<path transform="translate(762,858)" d="m0 0 2 1v99l-4 1v-99z" fill="#F9F8F8"/>
<path transform="translate(639,825)" d="m0 0h5l-4 2-3 1 2 2-26 6-12 4-14 7-11 10-9 14-6 13h-3l1-6 4-9 9-14 9-9 11-7 12-5 16-5z" fill="#24151D"/>
<path transform="translate(220,720)" d="m0 0h9l27 4 13 3 9 2v3h7l4 1v2h-10l-23-3-38-7-2-2z" fill="#C0C1C2"/>
<path transform="translate(964,194)" d="m0 0 2 3 3 7 3 2 9 1 3 1-5 5-8 5-9 1-5-2-4-6v-8l1-2 6-1 2-4z" fill="#B8B9BC"/>
<path transform="translate(719,626)" d="m0 0h6l-4 4-8 3-7 9-6 17v3l10-4 12-1 3 1-1 3-12 1-11 4-4 4-5 12-5 7-8 2-3-1 2-4 7-2 6-10 8-25 8-16 8-6z" fill="#1C0C0D"/>
<path transform="translate(436,487)" d="m0 0h146l-1 4-3 2-5 1-2 1-1-2-10 2-1-3-6 1-11-1-6-2v-2l-9 1-2 1v-2l-13 2v-2l-7 2-2-1-21-1-1 2v-2h-31l-1 2v-2h-13z" fill="#3C508C"/>
<path transform="translate(273,208)" d="m0 0 7 6 11 11 4 6 10 10-1 2-28-28-1-2-4 2-13 13-6 5-25 25-4-2 6-7 5-5 11-10 3-4h2v-2l8-7 7-7z" fill="#283F80"/>
<path transform="translate(857,605)" d="m0 0 9 1 31 8 23 7 9 3 16 5 1 2-8-1-2-2-10-2-2-2-12-2-5-1-8-1-24-7-7-2-1 6-2-1-1 1-13-1 4-1v-2l-4 1-2-2h4l2-5z" fill="#572F2A"/>
<path transform="translate(906,423)" d="m0 0 2 3 5 8 2 1-2-5v-5l1 2h2l7 9 7 6 11 5 11 3h6l-1 3-9 1-8-3-8-2-3-1v-2h-5l12 7 6 2v1l-8-1-12-6-10-9-6-12z" fill="#D1D1D1"/>
<path transform="translate(721,373)" d="m0 0 2 3 3 9 3 6-1-4 3-2 7 9 8 6 11 5 10 2-4 4-6 2-14-5-11-7-7-8-4-10z" fill="#D0D1D0"/>
<path transform="translate(857,661)" d="m0 0 5 2 24 11 32 16 21 12 1 2-6 1-19-11-17-9-23-11-20-9z" fill="#40242C"/>
<path transform="translate(83,897)" d="m0 0 4 1 4 5 3 2 1 7-3 2h-2l-7 8-2-3-3-7-9-3h-5l4-6 10-5z" fill="#B7B9BC"/>
<path transform="translate(314,786)" d="m0 0 2 2 2-1 8 17 3 15v7l-3 8-1 3-5 3 1-9v-14l-4-13-6-11-1-4z" fill="#898D95"/>
<path transform="translate(884,250)" d="m0 0 2 2 6 12v2l3 1 3 5v2h2v3l3 1 1 8 3 6-1 5-3 2-1-3h-3l-5-16-9-10-6-12v-6l2 1 4 8v-4z" fill="#D1D1D0"/>
<path transform="translate(898,197)" d="m0 0 11 2 11 3 23 4 5 1-4 2v2l-3 2-22-1-4-2v2l-5-2-12-12z" fill="#BABCC0"/>
<path transform="translate(982,793)" d="m0 0 2 3-12 14-9 10-9 11-30 32-4 4-3-1 2-4 13-13 7-8 12-13 9-11 11-12 8-10z" fill="#41242A"/>
<path transform="translate(192,32)" d="m0 0 5 1v19l-11 1h-9l-2-1 1-6 6-7z" fill="#7086B1"/>
<path transform="translate(281,700)" d="m0 0 11 1 12 5 6 4 8 9 4 8-1 4-2-3h-3l-1-3-2-1v-2l-5-1-9-8-14-6-9-2 2-2h8l12 4-7-3-10-2z" fill="#D3D4D3"/>
<path transform="translate(777,569)" d="m0 0 8 1 14 10 10 8 4 3v2l4 2 9 8 10 5 13 4 6 1v2h-10l-14-4-11-7-12-11-11-9-14-10-6-3z" fill="#31161A"/>
<path transform="translate(754,457)" d="m0 0h7l6 7v6l-6 7-5 1-8-4-2-8 3-5z" fill="#070406"/>
<path transform="translate(285,634)" d="m0 0 6 2 4 5 2 5-7 8-6 1-7-4-2-5v-5l6-6z" fill="#0A0608"/>
<path transform="translate(104,904)" d="m0 0h16l12 3h3l2-2 5 4v2l4 2 2 4-14-2-22-4h-17l3-3z" fill="#ADB1B8"/>
<path transform="translate(125,754)" d="m0 0 2 4 5 12v2l4 2 8 11 3 6v9l-2-2-4-11v3h-4l-6-8-6-4-1-2-1-9-2-4v-6z" fill="#B7B9BC"/>
<path transform="translate(863,614)" d="m0 0h2l3 3v13l-4 25-1 4-10-2 4 5v2l-5-1-2-4v-4l-17-2-3-3-3-2 12 1 17 3h4l3-17z" fill="#401D1E"/>
<path transform="translate(822,708)" d="m0 0h2l1 10-4 8-6 5-6 3h-4l-4 18-7 16-5 5-4-1 6-8 5-11 4-16 1-10 4-1 1 4 8-4h2l2-4 3-9z" fill="#231316"/>
<path transform="translate(916,865)" d="m0 0 3 3-14 15-6 7-4 15-6 31-2 7-2-4v-8l8-37 4-9 15-15z" fill="#45252B"/>
<path transform="translate(548,230)" d="m0 0h5l1 1v27l-1 26-5-1z" fill="#7E889B"/>
<path transform="translate(601,1066)" d="m0 0 3 4-1 7-2-4-3 9-5 12-9 14-8 10-8 7-5 4-12 6-3-1 11-6 5-5 5-4 9-11 7-10 7-12z" fill="#3A1D1E"/>
<path transform="translate(821,802)" d="m0 0h1v11l-6 12-11 13-12 10-14 9-10 5-4 4v-7l7-2 5-4 14-9 13-11 9-12 6-12z" fill="#16090A"/>
<path transform="translate(559,883)" d="m0 0 2 1-3 12-15 55-1 4h-2l-2 7h-1v-7l4-15 14-50 2-6z" fill="#251214"/>
<path transform="translate(922,304)" d="m0 0h13l14 2 2 3-3 2v2l-5 1-10 1-5 4-4-1-4-5v-6z" fill="#848890"/>
<path transform="translate(703,203)" d="m0 0 2 3 1 10 7 14 7 9 8 6v2l4 2 2 5-9-3-9-7-2-4h-2l-6-9-2-4-3-18 1-4z" fill="#D3D3D2"/>
<path transform="translate(135,825)" d="m0 0 1 2 3 1 4 11 1 8 5 5 2-4 7 11 1 3v8l-2-2-1-6-5 2-6-10-5-4-3-1-1-2-1-10-3-6 1-4z" fill="#B5B8BD"/>
<path transform="translate(733,555)" d="m0 0 12 1 17 6 10 5-4 1-8-1-20-5h-8l-22 5-2-1 11-6 8-3z" fill="#F3E2D6"/>
<path transform="translate(895,319)" d="m0 0 9 18 7 9 3 10v4h3l-1 5-3 1-4-3-2-12v-2l-4-2-6-5-6-12 1-4 4 4z" fill="#D2D2D1"/>
<path transform="translate(627,59)" d="m0 0 2 1-7 8-104 104v-3l17-17 7-8 18-18h2l2-4 4-4h2v-2l5-5 8-7 22-22 2-3h2v-2h2v-2l8-7zm-111 113m-1 1m-1 1m-1 1m-1 1m-1 1m-1 1m-1 1m-1 1m-2 1 2 1h-3z" fill="#F6BB78"/>
<path transform="translate(88,941)" d="m0 0 7 2v2l6 1 1-2 31 3 5 2 6 1 2 1 2-2v6l-3 1-1-3-8-1v2l-6-2-4 1-31-5-13-4v-1z" fill="#D2D2D1"/>
<path transform="translate(24,681)" d="m0 0 17 1v2l11 1 1-1h7l19 4 10 4v2l-14-1-7-2-13-1-26-3-7-2v-3z" fill="#D2D2D1"/>
<path transform="translate(206,931)" d="m0 0 4 2 4 1 4 4 2 4 1-1-1-5 3 3 5 10v7l-4 8-6 4-1-3v-14l-4-11-7-8z" fill="#BABCBE"/>
<path transform="translate(98,134)" d="m0 0 3 1 14 1h59l7-1 11 1 4 3h-110v-3h12z" fill="#7887A4"/>
<path transform="translate(97,861)" d="m0 0h7l7 10 2 1h9l5-3 2-3 4 2 4 4v3h-6-2l-9 2-3 1h-14l-2-2 2-1 4 1-1-2-8-2-1-3 2-1v-3l-3-1z" fill="#C0C1C2"/>
<path transform="translate(125,698)" d="m0 0 2 2 2 4v3l2-2 1-3 4 5 7 16 1 10-1 4-5 2-1-10h-2l-3-11-4-8-3-7z" fill="#D3D3D2"/>
<path transform="translate(721,582)" d="m0 0h22l11 3 12 5 4 3v2l-6-1-12-5-8-2-16-1-13 2-4 1-1 8h-9l1-2 3-1 3-7 8-4z" fill="#3D1919"/>
<path transform="translate(118,796)" d="m0 0 5 3 3 6-2 5-1 1h-16l-14-2-1-2h8l4-1-4-2 1-3 7 1 8-4z" fill="#848995"/>
<path transform="translate(765,256)" d="m0 0 8 1 28 6 12 2-5 5-4 1-17-4-9-4-5-1v2l-7-1v-3l-2-1z" fill="#C0C1C2"/>
<path transform="translate(942,416)" d="m0 0h9l7 2 15 2 38 7 15 3v1l-14-1-9-2-13-1-7-2h-14l-8 1-8-3-10-5z" fill="#C0C1C2"/>
<path transform="translate(540,955)" d="m0 0 1 3-14 52-4 17-1-4h-2l1-8 11-42 4-15 2 1z" fill="#241318"/>
<path transform="translate(98,951)" d="m0 0 12 1 27 4 3 1v2l3 1v2h-11l-27-4-11-2 6-3z" fill="#848891"/>
<path transform="translate(345,886)" d="m0 0h1l3 10 6 12 6 7 2 1h8l3-1-1-4-5-4v-5l7 5 10-1v-4h2v5l-5 4-5 1-2 6-4 2h-8l-1 3v-2h-2l-13-17-2-7z" fill="#321718"/>
<path transform="translate(381,201)" d="m0 0 3 1-4 5-6 5h-2l-2 4-49 49-2-1 2-4 58-58z" fill="#22397E"/>
<path transform="translate(276,796)" d="m0 0h7l9 4 8 9 3 8v8h-3l-2 7 3 1-1 2-5-1v-13l-5-14-4-5 1-1-11-4z" fill="#848892"/>
<path transform="translate(332,918)" d="m0 0 5 3 7 10 3 6v11l-4 5h-2l-1-10-4-9-7-9 1-4z" fill="#8E9199"/>
<path transform="translate(295,625)" d="m0 0 7 1 5 5-1 4v3l-7 6-4-1-4-6-5-2 2-5 3-2v-2z" fill="#ADB0B6"/>
<path transform="translate(685,782)" d="m0 0 2 1-4 6-8 9-5 5-10 8-4 8-3 7-9 3h-7l-2-2 9-1v-2l7-2 3-9 7-9 9-6 8-10 5-5z" fill="#1B1014"/>
<path transform="translate(509,1016)" d="m0 0 4 2 5 4 4 1v4l4 2 14 10 10 7 16 10v2h-5l-19-12-16-12-11-9-2-5-3-1z" fill="#220E0F"/>
<path transform="translate(707,153)" d="m0 0 1 2v13l4 9 6 8 1 4-4 3-6-4-7-11-2-6 1-7h2v-4h2z" fill="#888C95"/>
<path transform="translate(904,153)" d="m0 0h10l23 4v1l-7 1 25 5 9 3 9 5 3 4-1 4-4-6-10-5-14-4-27-5-16-3-1-2z" fill="#9199A8"/>
<path transform="translate(782,373)" d="m0 0 36 7 16 4-4 4-14-1-14-4-3-2-6-2-20-4v-1z" fill="#8993A9"/>
<path transform="translate(99,832)" d="m0 0 10 1 5 2 1-2 4 6v6l-12-2-9-2h-11l8-8z" fill="#AFB2B8"/>
<path transform="translate(605,1197)" d="m0 0h44l60 2v1h-106z" fill="#FDD8BC"/>
<path transform="translate(657,827)" d="m0 0 5 2 8 8 10 8 14 9 16 8 1 3h-6l-17-9-15-11-10-9-6-7z" fill="#150A0B"/>
<path transform="translate(902,156)" d="m0 0h2l1 3 6 1 7 2 9 1 10 2 8 3v2h5v1l-11 1-11-2-1-1-19-2-5-5z" fill="#D2D2D1"/>
<path transform="translate(659,659)" d="m0 0 2 2 2 20 3 12 1 3 6-2 7 1 6 2-1 3-10-1-9 3-6 4 2-5 1-5-4-11-1-5v-20z" fill="#351617"/>
<path transform="translate(273,198)" d="m0 0 5 3-4 2-7 3-9 10h-2l-2 4-5 4-6 7-7 6-6 7-6 5-6 7-6 2-2 4-2-1 59-59z" fill="#334883"/>
<path transform="translate(361,861)" d="m0 0h5l-8 8 1 9 4 13 5 9 1 5-2 1-6-9-6-14-4 1-3 2-1 5-3 3-1-11 4-1 4-3h4l-1-10 3-6z" fill="#421D1E"/>
<path transform="translate(745,466)" d="m0 0 2 1 1 7 6 2 2 2-3 5-4 3h-9l-5-5v-6l4 2-2 2 5 4h2l-2-1 1-5-4-1-3-3 2-1 2-4z" fill="#B2B4B7"/>
<path transform="translate(937,341)" d="m0 0 8 1 9 2 11 1v5l-5 3-15-1-2-1-1 2-4-6z" fill="#C1C2C6"/>
<path transform="translate(211,608)" d="m0 0 14 2 30 7 18 5 7 3v3h-6l-5-5-1 2-5-2-4-2-2 1-16-4-21-5-14-3v-1z" fill="#D2D2D1"/>
<path transform="translate(516,182)" d="m0 0v3l-7 7-5 6h-2v2h-2v2h-2v2h-2v2h-2v2h-2v2h-2v2h-2v2h-2v2h-2v2h-2l-2 4-14 14h-2v2h-2l-2 4-5 5-5 3 1-4 10-10h2v-2h2v-2l26-26h2v-2l7-6 5-6 7-6z" fill="#27346E"/>
<path transform="translate(240,888)" d="m0 0 12 1 7 1 2-1 12 2 4 1 14 2 3 2 19 2 1-4 4 5 1 6h-3v-2l-10-2-50-9-16-3z" fill="#C0C1C2"/>
<path transform="translate(221,756)" d="m0 0h9l31 5 25 5-4 2-14-2-13-1-6-2-18-2h-10l-4 1 2-5z" fill="#C0C1C2"/>
<path transform="translate(460,975)" d="m0 0 4 2 10 10 5 3 6 3 7 6v2l4 2 11 10 3 3 1 3 4 4h-3l-15-13-11-10-8-7-10-9-8-8z" fill="#1A131C"/>
<path transform="translate(87,764)" d="m0 0h16l4 4 1 6-3 1-12-3-11-1-8 1 1-2 3-2v-2z" fill="#9298A3"/>
<path transform="translate(937,376)" d="m0 0 2 1 1 3 7 2h3l15 3 8 3v3h-15l-16-4-3-2v-2l-3-1v-5z" fill="#ECEDEF"/>
<path transform="translate(938,411)" d="m0 0 8 1 7 1 5 2 68 13 1 2-13-1-45-9-11-1-7-2-10-1-3-3z" fill="#888A8E"/>
<path transform="translate(890,256)" d="m0 0 11 4 9 9 2 12 2 6-3 3h-2v-2h-2l-2-10 2-3-3-1-1-4-4-2-3-4 1-2-5-1z" fill="#A2A6AC"/>
<path transform="translate(733,205)" d="m0 0 39 9 29 6 7 1v2h-11l-40-9-23-4-3-3z" fill="#667293"/>
<path transform="translate(701,778)" d="m0 0 4 2 12 9 14 7 12 2 10-1-2 4-4 1h-9l-13-4-10-5-11-8v-2l-5-1z" fill="#170B0D"/>
<path transform="translate(710,579)" d="m0 0 2 1-1 1h7l3 2-10 3-3 2-2 8h-13l-2-1 1-5 10-7z" fill="#EFCEB7"/>
<path transform="translate(907,620)" d="m0 0 5 1 12 2 2 2 10 2 2 2 14 3 16 6 5 6-6-1-29-11-28-9-4-2z" fill="#170B0E"/>
<path transform="translate(585,207)" d="m0 0 5 1v76h-5l-1-1v-10h3v-23l1-19v-22z" fill="#7086B1"/>
<path transform="translate(103,214)" d="m0 0 7 1 6 5 2 4v7l-1 1-7-1-4-5-4-4-2-5z" fill="#69DAFA"/>
<path transform="translate(778,814)" d="m0 0 4 1-2 5-9 11-7 7-15 11-6 4h-2l2-4 4-4 12-9 10-9z" fill="#190B0C"/>
<path transform="translate(379,163)" d="m0 0v3l-3 4-4 5-8 7-6 6h-2l-2 4-8 7-7 8-7 6-5 5-12 11v-3l32-32h2l2-4h2l2-4 8-7z" fill="#354A84"/>
<path transform="translate(530,140)" d="m0 0h3l-1 3-8 7-33 33h-2l1-4 7-8 23-23z" fill="#21397E"/>
<path transform="translate(428,889)" d="m0 0 2 2 2-2 1 6v21l-5 24h-2l-2 4 1-13 3-16z" fill="#472124"/>
<path transform="translate(927,271)" d="m0 0 6 1 15 3 8 1-1 2h-2l-2 4-7 2-5-3h-10l-2-5z" fill="#A6A9AF"/>
<path transform="translate(905,373)" d="m0 0 1 4 2 11 4 10-1 20h-1l-1-14-5-3-2-3-1-5v-13z" fill="#D3D3D2"/>
<path transform="translate(732,369)" d="m0 0 2 2 4 11 7 8 9 6 16 5 4 2-5 3-15-4-10-6-1-2 2-1-6-5v-2h-2l-1 2-4-10z" fill="#AFB1B5"/>
<path transform="translate(139,785)" d="m0 0h2l4 10 1 3 1-6 2 2 3 12-6 9-4 1-1-16-3-11 2-1z" fill="#BCBDC0"/>
<path transform="translate(760,338)" d="m0 0h10l10 2 18 3 13 3 10 2 10 1v1h-5v2l-9-1-42-8-15-4z" fill="#9DA0AB"/>
<path transform="translate(927,158)" d="m0 0h15l19 4 10 4 4 2 4 6 1 8-3 1-3-9-7-5-8-3-22-5-10-2z" fill="#DCDDE0"/>
<path transform="translate(936,704)" d="m0 0h6l11 7 6 4 1 3-2 1-13-8-4 2-15 15-3 1-3 4-2-1 7-8 3-4h2l2-4 6-6v-3l-2-1z" fill="#1E1217"/>
<path transform="translate(721,941)" d="m0 0h1l1 9h1v44l-4-1v-48z" fill="#FAFAFA"/>
<path transform="translate(718,288)" d="m0 0h1l1 5h2l2 12 4 4 2 5 1 5 2 4h-2l-1 2-5-6-8-17-1-10z" fill="#77839C"/>
<path transform="translate(724,859)" d="m0 0 3 1 1 8 17-1 1-2 2-1-1 5-2 2-5 1h-13l-1 2-2-10-5-1v10l-3-4-8-3 2-3 6 1 3-4z" fill="#200D0E"/>
<path transform="translate(85,665)" d="m0 0h12l13 5 10 7 6 7 5 8-1 5-4-5-8-11-9-7-8-4-5-1v1l-12-1 2-2z" fill="#919397"/>
<path transform="translate(313,747)" d="m0 0 2 2 5 17 2 9-2 6h-2v5h-3l1-5-2-10-3-6v-6l1-1v-10z" fill="#90949A"/>
<path transform="translate(125,703)" d="m0 0 2 4 4 7 3 7 2 8v6l-4-4-2-5v-6h-2l1 3-2 2-3-1-4-6 2-4z" fill="#BCBEC0"/>
<path transform="translate(297,719)" d="m0 0 4 2 7 8-2-5 5 5 4 8 2-4 1 9-2 4-3 3v9l-1 5h-2l-3-4 1-5 2-3v-13l-5-9-6-7-2-1z" fill="#8C8F94"/>
<path transform="translate(731,570)" d="m0 0h9l17 4 10 4 4 2v3l-6-1-18-6-5-1-18-1 1-3z" fill="#261012"/>
<path transform="translate(237,846)" d="m0 0h11l15 2v2l3-1 6 2 17 4-4 1-21-2h-3l-15-4-1-1-8 1-4 1v-3z" fill="#C3C4C5"/>
<path transform="translate(731,552)" d="m0 0h12l20 7 20 10-1 2-8-2-17-8-12-4-14-2h-5v-2z" fill="#3A1C1F"/>
<path transform="translate(368,60)" d="m0 0 16 1h62l2 2h-115v-2z" fill="#20387E"/>
<path transform="translate(250,924)" d="m0 0h9l25 4 3 2-1 1 2 2h-7l-12-3h-17l-6-1 4-4z" fill="#CECECD"/>
<path transform="translate(668,610)" d="m0 0 1 3-5 18-4 15-3 6h-2l-1 3h-6l2-4 5-4 3-8 3-14 3-12h2z" fill="#482122"/>
<path transform="translate(565,396)" d="m0 0h17v7l-1 1h-27l1-2 4-1 1-2h4z" fill="#374C89"/>
<path transform="translate(714,194)" d="m0 0v3l-2 8v16l3 5 3 1 1 4-1 2h-2v-2l-4-1-5-9-1-4v-12l2-1 2-7 2-2z" fill="#818691"/>
<path transform="translate(175,916)" d="m0 0 14 3 12 2 8 4 9 8 4 8-2 2-4-6v-2h-4l-8-6-2-4-12-3-13-2z" fill="#8A8C90"/>
<path transform="translate(780,786)" d="m0 0 1 2 3-1 1 3-2 7 3-2 1-5h3l-2 12-5 13-4-1 2-11-3-1 1-5z" fill="#190B0B"/>
<path transform="translate(220,720)" d="m0 0h9l27 4 13 3 9 2v3l-9-1-10-2-17-3-16-3v-1l-6-1z" fill="#CECFCE"/>
<path transform="translate(904,157)" d="m0 0 23 3 24 5 15 5 2 2-10-2-7-2h-10l-6-3-14-1-4-2-10-1-3-2z" fill="#C0C1C2"/>
<path transform="translate(154,878)" d="m0 0 6 2v4l-2 1 2 7 9 11 7 11-2 2-13-17-6-7-2 3-2-4z" fill="#888A8E"/>
<path transform="translate(714,292)" d="m0 0h1v6h2l4 11 7 13 2 2v3l-7 3-3-8-4-7 1-4-2-8 1-2h-2z" fill="#D2D2D2"/>
<path transform="translate(426,442)" d="m0 0h85l-2 2-9 1-2-1h-12l-6 1-5-1-6 1v-2l-9 2-6-1-5 1-1-1h-18l-4 1z" fill="#20387E"/>
<path transform="translate(692,783)" d="m0 0h6v23h-3l-2-5-1-9-6-4-7 7v-3l8-7z" fill="#EEBB8A"/>
<path transform="translate(595,673)" d="m0 0 5 1 8 3 14 5 12 6v3l-7-1-24-10-7-3z" fill="#4E2625"/>
<path transform="translate(691,596)" d="m0 0h28l15 1 6 2v1h-16l3 10v6l-4-4-3-12-24-2-5-1z" fill="#16090A"/>
<path transform="translate(268,817)" d="m0 0h7l4 4v8l-2 2-6-1-6-4-1-5z" fill="#636883"/>
<path transform="translate(773,664)" d="m0 0 5 2 9 12 9 5 12 2 1 3-4 1h-7l-13-7-8-9-4-7z" fill="#210D0E"/>
<path transform="translate(720,741)" d="m0 0 10 3 9 1v1h-14l-2-1 3 12 6 10 4 6-5-1-7-9-5-12-1-9z" fill="#160C0F"/>
<path transform="translate(289,733)" d="m0 0 5 4 2 6h-18l-9-2-6-1-11-2 4-2 13 2h16v-3h4z" fill="#6579A3"/>
<path transform="translate(90,658)" d="m0 0h8l14 4 11 6 9 9 6 12-1 4-5-10-9-7-3-5 1-1-12-6-19-5z" fill="#CBCBCB"/>
<path transform="translate(220,289)" d="m0 0m-1 1m-1 1m-1 1m-1 1m-1 1m-1 1m-1 1m-1 1m-1 1m-1 1m-1 1m-1 1m-1 1m-1 1m-1 1m-1 1m-2 1 2 1-10 10-4 5h-2l-2 4-7 6-5 6h-2l-2 4h-2l-2 4-14 14h-2l2-4z" fill="#293F82"/>
<path transform="translate(183,946)" d="m0 0 12 2 2 1v2h2l1 2v6l-1 1h-6l-7-6-3-6z" fill="#BCBCBF"/>
<path transform="translate(821,686)" d="m0 0 1 3-2 7 5 7v10h-1v-5l-3-1-3-7-6-3-7 1-6 1 1-4 9-3 5 1 2 1 2-5z" fill="#190D0F"/>
<path transform="translate(760,209)" d="m0 0 12 2 29 6 12 2-4 3-18-3-33-7z" fill="#B3B6BD"/>
<path transform="translate(742,688)" d="m0 0 2 1-1 8v13l5 6 1 5-4 6-5 1 2-4 2-3-1-5-4-4-1-3v-8l3-12z" fill="#1F0D0E"/>
<path transform="translate(812,592)" d="m0 0 5 3 9 8 10 5 13 4 6 1v2h-10l-14-4-11-7-5-8-3-2z" fill="#150A0B"/>
<path transform="translate(747,277)" d="m0 0h2l-1 6-1 4 2 1-1 6 4 10 4 4v2l6 1 1 2-2 1v2l-4-2-8-7-4-7-1-4v-12l1-6z" fill="#647295"/>
<path transform="translate(553,231)" d="m0 0h1v27l-1 26-4-1h3l-1-14-1-3v-34l2 2z" fill="#7086B1"/>
<path transform="translate(562,151)" d="m0 0 2 1-5 8v15l1 25-1 2-1 11 2 5 3 1h-6l-1-3v-21l1-38z" fill="#69DAFA"/>
<path transform="translate(770,251)" d="m0 0 12 2 21 4 13 3-3 5-4-1 1-1-14-3-25-5 1-3z" fill="#A7ABB5"/>
<path transform="translate(138,821)" d="m0 0h3 1l1 6v11h2l6 7 4 6-1 3-3-5-2 3-3-1-4-7-1-7-3-9-2-1 1-5z" fill="#BBBCBE"/>
<path transform="translate(625,699)" d="m0 0h10l-1 3-13 3-13 1h-10v-3l8-2 14-1z" fill="#4F2524"/>
<path transform="translate(720,572)" d="m0 0h4v2l2 1-18 6-11 6-3 3h-2l-2 4-1-5 5-5 10-6z" fill="#3A1818"/>
<path transform="translate(861,190)" d="m0 0 10 1-4 2v2l4 2 3 2 2 4 5 5 4 6 3 5 5 3-1 4-2-1v-2l-4-2-7-9-10-13-6-4-10-2v-1l8-1z" fill="#898D94"/>
<path transform="translate(727,327)" d="m0 0h2l1 16v6h2v5l2 4h-2v-2l-5-2-3-10v-15z" fill="#888B91"/>
<path transform="translate(129,872)" d="m0 0 2 2h7l-1 6-4 2-20-2-12-1-3-2h19l5-2h7z" fill="#7A7F8E"/>
<path transform="translate(72,725)" d="m0 0h10l11 1 11 4v2l-3 1-17-2-10-2-3-3z" fill="#EBEBEB"/>
<path transform="translate(750,344)" d="m0 0 9 2 7 3 30 6 5 2v2l-9-1-31-7-9-4-2-1z" fill="#E6E7EA"/>
<path transform="translate(343,49)" d="m0 0h61v3l-82-1v-1z" fill="#FBFBFB"/>
<path transform="translate(721,373)" d="m0 0 2 3 3 9 3 6 3 4v2h2l4 5 14 7 5 2-4 1-12-5-10-7-7-9-3-8z" fill="#C4C5C5"/>
<path transform="translate(559,883)" d="m0 0 2 1-3 12-6 22h-2l-2 4-1-4 9-31 1-3z" fill="#291316"/>
<path transform="translate(851,152)" d="m0 0 5 2 7 8 2 5h-5l-5-8 2 5 1 2-7-1-3-3v-7z" fill="#B5B7BD"/>
<path transform="translate(761,169)" d="m0 0 27 6 17 3 2 2h-14l-7-2-12-2-16-4v-2z" fill="#A6AAB5"/>
<path transform="translate(594,77)" d="m0 0h2v2l-5 5-3 1-2 4h-2l-2 4h-2l-2 4h-2l-2 4-7 7-1-2-2-1 7-7 5-6 8-7 5-5z" fill="#314680"/>
<path transform="translate(441,981)" d="m0 0 4 2-10 13-12 13-5 4-3-1 3-5 8-7 9-10 1-3 4-4z" fill="#391A1B"/>
<path transform="translate(128,720)" d="m0 0h2l2 8 3 6 1-5h1l2 9v3l-5 6h-3l-1-12-4-8 1-3z" fill="#C0C1C2"/>
<path transform="translate(911,234)" d="m0 0h13l7 1-1 4 3 2h-11l-7 2-4-1-1-6z" fill="#858A93"/>
<path transform="translate(158,859)" d="m0 0 2 2 1 8h2v9l-1 2-7-1-3-12v-4l4-1 2 6z" fill="#BBBDC0"/>
<path transform="translate(723,745)" d="m0 0 18 1v2l-5 4h-6l-1 7 2 5-3-1-5-12z" fill="#E69D62"/>
<path transform="translate(890,614)" d="m0 0 13 2 22 6 7 3 13 4 1 2-8-1-2-2-10-2-2-2-12-2-5-1-8-1-12-4z" fill="#2B1212"/>
<path transform="translate(318,738)" d="m0 0h1l2 9 6 16v11l-2 1-2-13-2-6v-3l-3 1-2 2-2-10h2v-6z" fill="#C1C2C3"/>
<path transform="translate(748,567)" d="m0 0 6 1 14 5 2 3-1 2h3v2l-5-1-10-4-16-5v-2z" fill="#EEE3DB"/>
<path transform="translate(938,375)" d="m0 0h10l-4 2 7 2 18 4 5 2v3l-9-2-15-3h-3l-7-2z" fill="#828794"/>
<path transform="translate(571,155)" d="m0 0h1v64h-1l-3-19v-12l2-8z" fill="#69DAFA"/>
<path transform="translate(87,231)" d="m0 0 1 3v3l9 2h12l23 1 1 2h-47v-10z" fill="#69DAFA"/>
<path transform="translate(78,927)" d="m0 0v3 3l4 1 4 3v2l-4-1-5-1v3l-3-1-1-1v5h-2l1 2-4-2v-10l7-4z" fill="#BCBDC0"/>
<path transform="translate(941,839)" d="m0 0 3 1-2 4-8 8-7 8-7 7-3-1 2-4 13-13 7-8z" fill="#1A1119"/>
<path transform="translate(772,259)" d="m0 0 8 1 2 3 3 1h14l4 2 6 1-1 3-4 1-17-4-9-4-5-1v2l-7-1 1-3z" fill="#D1D1D0"/>
<path transform="translate(324,783)" d="m0 0 2 1 5 11 4 16v8l-3 9-5 7-2-2 4-11h2v3l1-3v-11l-4-13-4-12z" fill="#C3C4C4"/>
<path transform="translate(703,179)" d="m0 0 4 4 4 6 4 2-1 4-4 3-1 7h-2l-1 11h-1l-1-15 3-4h2l-2-4v-3h-2l-2-3-1-7z" fill="#C0C1C2"/>
<path transform="translate(271,792)" d="m0 0 17 3 7 3 1 4h-3l-7-4h-4l6 3v3l3 3-1 2-5-5-7-4-11-2 4-2z" fill="#B6B7BA"/>
<path transform="translate(863,614)" d="m0 0h2l3 3v13l-3 20-2 2-1-2v-8l1-7z" fill="#1A0B0C"/>
<path transform="translate(761,173)" d="m0 0 9 1 13 3 6 1 16 2-4 4-40-8z" fill="#848993"/>
<path transform="translate(957,200)" d="m0 0 2 1v2h-2l2 8 9 3 1 3-1 2-10-1-5-6v-9l1-2z" fill="#D2D2D1"/>
<path transform="translate(426,939)" d="m0 0 2 1 3 9 9 14 3 4-1 2-2-1-1 2-11-17-3-6v-7z" fill="#341B1D"/>
<path transform="translate(898,197)" d="m0 0 11 2 9 2-4 1v2l6 1 3 2-5 1-9 1-11-11z" fill="#ACB0B8"/>
<path transform="translate(759,853)" d="m0 0h5l1 3h-4l-1 17-2 16h-1l-1-20-2-2 2-11z" fill="#190B0B"/>
<path transform="translate(742,563)" d="m0 0h7l16 5 8 3-1 4-4-1-17-6-9-2z" fill="#381A1A"/>
<path transform="translate(512,442)" d="m0 0h17l-3 2-3 1 3 2-1 2 6-1h49l1 2h-63l2-5-2-1-6 1z" fill="#20387E"/>
<path transform="translate(729,340)" d="m0 0 3 4 4 8 2 1-1 4-3 5-2-1-3 3h-2l-1-9-1-7 2 2v4l5 2v2h2l-3-4 1-5h-2z" fill="#BCBEC0"/>
<path transform="translate(901,326)" d="m0 0 1 2h2v2l4 1 6 7v2h2l1 4h2l1-5h1v17l-4-1-1-9-5-6-4-3v-2h-2l-4-6z" fill="#85888E"/>
<path transform="translate(685,782)" d="m0 0 2 1-4 6-8 9-5 5-6 5-2-1 1-2-2-1 9-6 8-10 5-5z" fill="#28161A"/>
<path transform="translate(923,728)" d="m0 0h2l-2 4-28 28-5 3 2-4 8-8h2l1-4 6-7 8-7 4-2z" fill="#471D1D"/>
<path transform="translate(767,283)" d="m0 0h3l4 8 2 1-3-6-1-3 6 1 3 4-1 5-4 2h-6l-3-5z" fill="#F0EFEF"/>
<path transform="translate(730,204)" d="m0 0 14 1 16 4 2 2h-8l-21-5-1 3 3 1v2l3 1 5 4-5-1-6-3h-3v-8z" fill="#C0C2C6"/>
<path transform="translate(509,1016)" d="m0 0 4 2 5 4 4 1v4l4 2 8 6 3 4v2l-4-2-8-6-10-8-2-5-3-1z" fill="#190C0E"/>
<path transform="translate(614,97)" d="m0 0 2 1-5 6-8 7-19 19-2 3 1-6 6-7 4-4h2l2-4h2l2-4 8-7z" fill="#2B4283"/>
<path transform="translate(737,243)" d="m0 0 26 6 9 3v2l-9-1-15-3-12-4z" fill="#B5B8BC"/>
<path transform="translate(400 1e3)" d="m0 0h2l5 7 3 7-4 3h-5l-2-7z" fill="#EFB87E"/>
<path transform="translate(368,902)" d="m0 0 7 5 10-1v-4h2v5l-5 4-5 1-2 6-4 2-4-1h2v-2l5-2-1-4-5-4z" fill="#381717"/>
<path transform="translate(83,897)" d="m0 0 4 1 4 5 3 2 1 7-3 2-2-7-5-3-11-2-4 3h-2v-2l10-5z" fill="#D0D0CF"/>
<path transform="translate(916,423)" d="m0 0 3 4 3 5 10 9 16 6 11 2-3 2-8-1-12-4-10-6-7-7-4-6z" fill="#888A8E"/>
<path transform="translate(785,345)" d="m0 0 10 1 32 6-2 3-26-4-9-2z" fill="#7D8696"/>
<path transform="translate(743,279)" d="m0 0h2l-1 23 3 5-1 2-3-3-4-9v-13z" fill="#D2D3D4"/>
<path transform="translate(512,253)" d="m0 0 4 1v29l-4 1-1-2v-28z" fill="#9197A3"/>
<path transform="translate(901,749)" d="m0 0 1 2-8 7-3 3-3 5-14 11-5 2v-2h2l-1-3 10-7h2v-2l4-3h2v-2l8-7z" fill="#261820"/>
<path transform="translate(252,727)" d="m0 0 17 3h6v1l10 1 4 1v2h-10l-23-3-5-2z" fill="#C1C2C3"/>
<path transform="translate(274,705)" d="m0 0 11 1-2 1 4 2v2l4 2v3l-10-3-12-2z" fill="#8E95A4"/>
<path transform="translate(281,700)" d="m0 0 11 1 12 5 6 4 8 9 4 8-1 4-8-15-5-5-17-7-10-2z" fill="#C3C4C4"/>
<path transform="translate(1017,666)" d="m0 0h4v2l4 2 9 9 3 5v4h-3l-8-11-9-8-2-2z" fill="#1A1523"/>
<path transform="translate(749,604)" d="m0 0 8 2v2l2 1-10 2-6 4-5 10h-3l3-10 5-6 6-3z" fill="#230E0F"/>
<path transform="translate(678,725)" d="m0 0 4 2 5 23 2 8h-2l-4-12-1-7-6-4-7-3v-2l9 1z" fill="#3A191A"/>
<path transform="translate(816,172)" d="m0 0 3 1 7 11 9 10 5 4-3 1-7-4-8-9-5-10z" fill="#C8C9C9"/>
<path transform="translate(71,724)" d="m0 0h7v1l-6 1 3 3v2h-2v2h7v2l3 2h-10l-5-2-3-3 1-4z" fill="#9599A2"/>
<path transform="translate(680,737)" d="m0 0 3 2 3 14 1 5h3l3 6 1 6 6 7h-3l-6-7-7-14-4-13z" fill="#160A0C"/>
<path transform="translate(295,625)" d="m0 0 7 1 5 5-2 4-4-1-9-3-2 2h-3l2-4 2-1v-2z" fill="#C2C2C3"/>
<path transform="translate(744,559)" d="m0 0h10l16 7 2 2h-9l-21-6z" fill="#EBD6C8"/>
<path transform="translate(930,160)" d="m0 0h7l26 6 10 6 3 4-1 4-4-6-10-5-14-4-16-3z" fill="#78839B"/>
<path transform="translate(178,920)" d="m0 0h10l4 1 10 3 3 3v2l1 3h-2v-2l-9-3-11-3-8-1v-2z" fill="#B2B5BA"/>
<path transform="translate(960,817)" d="m0 0 2 1-1 5-12 13-5 5-2-3 9-10z" fill="#45252C"/>
<path transform="translate(314,786)" d="m0 0 2 2 2-1 4 9-1 4 1 5h-3l-5-10-4-3v-3z" fill="#7B8496"/>
<path transform="translate(485,184)" d="m0 0h3l-2 4-24 24-2-1 1-3h2v-3l7-6 2-3 3-2 4-2 2-4h2z" fill="#2B4284"/>
<path transform="translate(104,904)" d="m0 0h16l14 4 6 3-2 2-18-5-13-1-3-1z" fill="#858991"/>
<path transform="translate(574,857)" d="m0 0v3l-7 11-6 13h-3l1-6 4-9 6-10h3z" fill="#3B2025"/>
<path transform="translate(728,566)" d="m0 0h18l2 2h-7v2l2 1h-22l-5 1 2-3 4-2z" fill="#EBCDB8"/>
<path transform="translate(734,389)" d="m0 0h2l3 3 11 7 10 4 9 2v2h-8l-13-5-9-6-5-5z" fill="#868A92"/>
<path transform="translate(745,583)" d="m0 0 9 2 12 5 4 3v2l-6-1-12-5-8-2z" fill="#461C1C"/>
<path transform="translate(724,742)" d="m0 0h34v3l-14 1-3 1-2-1-13-2z" fill="#38487D"/>
<path transform="translate(1037,686)" d="m0 0 3 2v15l-4 10-4 2 1-6 3-10v-7l-1-4h2z" fill="#472B33"/>
<path transform="translate(790,685)" d="m0 0 9 3 12 1 5 2v3l-7-1-7 1-7-3-5-5z" fill="#F4C288"/>
<path transform="translate(333,875)" d="m0 0 4 4-1 2h3l1-2 4 5-1 12-2 3-4-13-5-8z" fill="#E8E8E8"/>
<path transform="translate(306,855)" d="m0 0 9 1 10 4 10 8 7 9 3 6-4-2-4-6-8-9-11-6-12-4z" fill="#C3C3C4"/>
<path transform="translate(826,656)" d="m0 0 2 1v10l-4 18-2 2-4 2 3-10 3-14 1-1z" fill="#1E1218"/>
<path transform="translate(949,632)" d="m0 0 5 1 14 5 5 6-6-1-23-9v-1z" fill="#1B172B"/>
<path transform="translate(936,274)" d="m0 0 12 1 8 1-1 2h-2l-2 4-7 2-5-3 6-3h-9z" fill="#C2C3C3"/>
<path transform="translate(998,422)" d="m0 0h15l19 3v1h-5v2l2 1h-3l-27-5z" fill="#B6B9BF"/>
<path transform="translate(711,296)" d="m0 0 2 4 4 15 6 11 2 9-1 9h-1l-1-13-8-15-3-12z" fill="#C3C4C5"/>
<path transform="translate(602,1038)" d="m0 0h2l1 22v15h-1l-3-9v-15z" fill="#471D1D"/>
<path transform="translate(328,800)" d="m0 0h2l3 11v11l-2 4-1-2 1-2h-2l-2-10v-7l1-3z" fill="#D7D7D6"/>
<path transform="translate(733,205)" d="m0 0 30 7-1 2-12-1-16-3-3-3z" fill="#818793"/>
<path transform="translate(540,955)" d="m0 0 1 3-7 26-2-1-1-7 5-18 2 1z" fill="#32191E"/>
<path transform="translate(204,404)" d="m0 0 5 5 9 7 13 5 30 1v1h-33l-12-5-9-7-3-4z" fill="#293F81"/>
<path transform="translate(937,341)" d="m0 0 8 1 9 2 11 1v3h-14l-9-2-3-2h-2z" fill="#C7C9CC"/>
<path transform="translate(313,794)" d="m0 0 3 3 3 6v2h3l-2-7 2-2 4 8 1 4v10h-2l-2-8-2-3v2h-2l-6-12z" fill="#8895AF"/>
<path transform="translate(92,767)" d="m0 0 8 1 6 3 2 3-3 1-12-3-10-1-2-2 2-1h8z" fill="#BCBEC2"/>
<path transform="translate(317,753)" d="m0 0h4l3 9 1 13h-2v-2h-2l-4-14z" fill="#D8D8D8"/>
<path transform="translate(760,338)" d="m0 0h10l10 2 14 4 6 2v1l-10-1-27-6z" fill="#ADB0B6"/>
<path transform="translate(701,209)" d="m0 0h1l3 18 5 9 3 4v3l-3-1-7-10-2-6-1-16z" fill="#C2C3C4"/>
<path transform="translate(132,772)" d="m0 0 4 2 8 11 3 6v9l-2-2-4-11v3l-5-5 2-2-6-9z" fill="#888A8E"/>
<path transform="translate(769,692)" d="m0 0h6l1 4v2l-1 5-5 1-3-3 1-3h-2l2-5z" fill="#200E10"/>
<path transform="translate(938,411)" d="m0 0 8 1 7 1 5 2 11 3v1h-11l-7-2-10-1-3-3z" fill="#87898F"/>
<path transform="translate(871,608)" d="m0 0 8 1 18 5-3 2-4-1-5 1-17-5z" fill="#372739"/>
<path transform="translate(709,692)" d="m0 0h5l2 4v6l-6 2-3-4-1-4z" fill="#220F10"/>
<path transform="translate(745,334)" d="m0 0 18 2 3 2-3 1 2 2h-10l-2 1-8-5z" fill="#73809C"/>
<path transform="translate(921,306)" d="m0 0 3 1 2 4 7 1v3l-5 4-4-1-4-5v-6z" fill="#C8CACC"/>
<path transform="translate(787,223)" d="m0 0h19l-2 4-3 1h-11l-11-2v-1l7-1z" fill="#CECECE"/>
<path transform="translate(239,889)" d="m0 0 5 1v2l4 2 19 4v1h-8l-22-4-2-2z" fill="#A3A6B1"/>
<path transform="translate(775,783)" d="m0 0 2 1-4 6-11 7-8 3h-2l2-4 15-8z" fill="#1B0E10"/>
<path transform="translate(758,742)" d="m0 0h8l-3 14-3 6-1-4 1-3 1-9h-17v-1l12-1z" fill="#1F0F11"/>
<path transform="translate(716,657)" d="m0 0 9 1-1 3-12 1-12 4v-4l10-4z" fill="#221012"/>
<path transform="translate(713,240)" d="m0 0 5 5 7 5 8 3-1-3 4 1v2l9 1-4 2h-8l-10-4-11-8z" fill="#C6C7C7"/>
<path transform="translate(601,1066)" d="m0 0 3 4-1 7-2-4-3 9-4 9-2 1-1-5 8-16z" fill="#1E1218"/>
<path transform="translate(130,710)" d="m0 0 3 2 2-1 3 5 2 9-2 1v6l-1-3h-2l-3-11-2-4z" fill="#F6F6F6"/>
<path transform="translate(659,659)" d="m0 0 2 2 2 20v6l-4-2-1-5v-20z" fill="#381B1D"/>
<path transform="translate(314,894)" d="m0 0 4 5 1 6h-3v-2l-10-2-11-2v-2h9l9 1z" fill="#BBBCBF"/>
<path transform="translate(313,747)" d="m0 0 2 2 5 17-1 5-2-3-1-4-5 1v-6l1-1v-10z" fill="#7F838F"/>
<path transform="translate(511,441)" d="m0 0h18v1h-17l3 4-3 1-4-1h-24l-1-2 6-1h10l4 1 7-1z" fill="#3C508C"/>
<path transform="translate(884,936)" d="m0 0 2 3 1 9-3 17h-1l-1-5-2-1z" fill="#482C37"/>
<path transform="translate(386,848)" d="m0 0 4 2 3 4 13 5v3l-7-1-10-4-2-3v-2l-2-3z" fill="#381717"/>
<path transform="translate(718,288)" d="m0 0h1l1 5h2l2 12v3h-3v-3h-3l-2-7 1-9z" fill="#8A8B8F"/>
<path transform="translate(788,772)" d="m0 0 1 2-2 3v4l-3 1-1 6h-2v-2l-7 1 6-8 5-6z" fill="#150B0E"/>
<path transform="translate(106,697)" d="m0 0h1v8l-1 1-13-1-7-1 3-2 1-2 9 1 5-1 1 1z" fill="#818692"/>
<path transform="translate(909,237)" d="m0 0h2v5l9-1 7-1v2l-6 3-4 4-5-2-3-4z" fill="#C6C6C7"/>
<path transform="translate(422,869)" d="m0 0 4 1 4 8 1 5v9l-3-3-5-16z" fill="#351B1E"/>
<path transform="translate(800,583)" d="m0 0 7 3 6 5v3l5 5v3l-10-9-10-8z" fill="#3F1D1F"/>
<path transform="translate(282,331)" d="m0 0 1 3-2 5-4 7-2 16-2-2v-13l4-10z" fill="#243C80"/>
<path transform="translate(81,254)" d="m0 0 2 1-36 36v-4l15-14 5-6 8-7z" fill="#D69565"/>
<path transform="translate(395,910)" d="m0 0h2l-3 12-2 12v5h-3v-15z" fill="#1C0D0F"/>
<path transform="translate(129,866)" d="m0 0 4 2 4 4v3h-6-2-7v-3l5-3z" fill="#BEBFC0"/>
<path transform="translate(581,490)" d="m0 0h1v7h-17l-4-2 4-2 6-1v3l3-3 6-1z" fill="#344A88"/>
<path transform="translate(723,967)" d="m0 0h1v27l-4-1v-12l1-7z" fill="#E7D2C3"/>
<path transform="translate(449,966)" d="m0 0 3 4-6 12-4 1 1-5 1-4-4-3v-3l7 2z" fill="#2B1314"/>
<path transform="translate(348,923)" d="m0 0 3 3 3 7v4h-2l1 6-2 6h-1l-3-16 3-3-3-6z" fill="#D2D2D1"/>
<path transform="translate(693,766)" d="m0 0 4 4 5 8-5 4-10 4-2-1 2-4 5-2h5l1-2v-3l-3-1-3-6z" fill="#1D1114"/>
<path transform="translate(890,256)" d="m0 0 11 4 5 5 3 2-1 4-5-2-5-5-1-2-5-1z" fill="#BBBCBE"/>
<path transform="translate(714,231)" d="m0 0h2v2l4 1v2h2l5 5 7 4 6 2v1l-9-1-9-5-8-9z" fill="#576793"/>
<path transform="translate(913,207)" d="m0 0h10v2l9 1 9 2v1l-22-1-4-2v2l-5-2v-2z" fill="#D3D4D6"/>
<path transform="translate(704,155)" d="m0 0h2v12h-1v-7h-2l-1 7-1 8-3-4-1-7 4-6z" fill="#C1C2C3"/>
<path transform="translate(740,247)" d="m0 0 17 4 11 2 1 2h-10l-21-5-2-2z" fill="#6E7B9A"/>
<path transform="translate(483,112)" d="m0 0h63v2l-3 1v-2l-57 1-2 5h-1z" fill="#6AD8F8"/>
<path transform="translate(527 1e3)" d="m0 0 1 4-5 21-1-4h-2l1-8 3-12 2 2z" fill="#331B21"/>
<path transform="translate(822,708)" d="m0 0h2l1 10-4 8-6 2-1-2h2l2-4 3-9z" fill="#462223"/>
<path transform="translate(752,344)" d="m0 0h7l10 3 1 1 15 2v3l-9-1-16-4-8-3z" fill="#D2D2D1"/>
<path transform="translate(573,1116)" d="m0 0h2l-2 4-8 8-14 7-3-1 11-6 5-5 6-3z" fill="#110C14"/>
<path transform="translate(347,938)" d="m0 0h2l1 5v8l-7 6-3 1 2-12h1l1 5 2-5z" fill="#BDBEC0"/>
<path transform="translate(79,791)" d="m0 0h4l-2 7 2 4 2 1v2l3 1h-7l-5-6 1-7z" fill="#C7C8C8"/>
<path transform="translate(125,698)" d="m0 0 2 2 2 4v3l2-2 1-3 4 5 1 3-2 3-1-1-2 4-2-5-4-4z" fill="#D4D4D3"/>
<path transform="translate(84,665)" d="m0 0 5 2 1 1v-1l7 1 4 2 2 3-5 1-18-5z" fill="#B0B3B8"/>
<path transform="translate(154,878)" d="m0 0 6 2v4l-2 1v4h-2v2h-2l-1 4-2-4z" fill="#9A9DA6"/>
<path transform="translate(762,858)" d="m0 0 2 1-1 20-3 4v-23z" fill="#E7E7E7"/>
<path transform="translate(716,569)" d="m0 0 2 1h3 4v2l-14 4-8 3 1-5z" fill="#D7BBA9"/>
<path transform="translate(764,480)" d="m0 0 4 2 4 4v2l14 3-4 1-9-2h-6l-4-2z" fill="#D1D1D0"/>
<path transform="translate(191,949)" d="m0 0h6v2h2l1 2v6l-1 1h-6l-2-1v-4l5 2-4-5z" fill="#CECAC9"/>
<path transform="translate(659,636)" d="m0 0h1v10l-3 6h-2l-1 3h-6l2-4 5-4z" fill="#311B22"/>
<path transform="translate(267,926)" d="m0 0 17 2 3 2-1 1 2 2h-7l-12-3z" fill="#D2D2D1"/>
<path transform="translate(150,848)" d="m0 0 4 4 5 10v8l-2-2-3-11v-2h-2l1 5-5-5-1-3h2z" fill="#8D8F93"/>
<path transform="translate(297,719)" d="m0 0 4 2 7 8-2-5 5 5 2 7 1 8h-2l-5-12-7-9-3-2z" fill="#B8BABC"/>
<path transform="translate(85,665)" d="m0 0h12l12 5v2l-6-1-8-3h-3l4 2-12-1 2-2z" fill="#7483A2"/>
<path transform="translate(143,779)" d="m0 0 4 5 2-1 4 7v3l-4 2-6-10z" fill="#F3F3F3"/>
<path transform="translate(753,574)" d="m0 0 7 1 9 4 2 1v3l-6-1-12-5z" fill="#241011"/>
<path transform="translate(823,501)" d="m0 0 9 1 14 3v3h-8l-12-3z" fill="#CACACA"/>
<path transform="translate(782,373)" d="m0 0 19 4v2l6 1-4 1-30-6v-1z" fill="#A1A6B1"/>
<path transform="translate(97,734)" d="m0 0 3 1h4l1 4h2l-1 2-21-2v-1l9-2z" fill="#7A8295"/>
<path transform="translate(731,552)" d="m0 0h12l11 4-3 1-20-2h-5v-2z" fill="#221315"/>
<path transform="translate(735,475)" d="m0 0 4 2-2 2 5 4h2l-2-1v-2h5l5 4-3 2h-9l-5-5z" fill="#BBBCBD"/>
<path transform="translate(741,474)" d="m0 0h5l1 3 5 1v-2l4 2-3 5-5-1-5-2v-3l-2-1z" fill="#93979F"/>
<path transform="translate(60,132)" d="m0 0 2 1v11l-1 11 4 3-6 2v-24z" fill="#68DAFA"/>
<path transform="translate(581,846)" d="m0 0h6l-5 5-11 10-1-3 7-8z" fill="#33191B"/>
<path transform="translate(85,791)" d="m0 0h6l3 3 1 5h-5l-2-4-1 4-3-1v-6z" fill="#F2F2F2"/>
<path transform="translate(639,825)" d="m0 0h5l-4 2-3 1 2 2-9 2-4-1 1-1-4 1-2 1-4-2 12-3z" fill="#443246"/>
<path transform="translate(732,561)" d="m0 0h8l5 1 1 3-4 1h-12l-2-4z" fill="#502A2A"/>
<path transform="translate(744,296)" d="m0 0 2 4 6 9 4 5-3 1-3-1v-2l-3-1-3-7-1-5z" fill="#C0C2C5"/>
<path transform="translate(711,205)" d="m0 0 2 2 2 11 4 9-4 1-4-7z" fill="#AFB2B9"/>
<path transform="translate(322,773)" d="m0 0 1 2 2 1-1 5-1 2-1 1 1 4-4 3-4-3 1-3 2-4h2v-5z" fill="#C3C3C4"/>
<path transform="translate(771,652)" d="m0 0 2 3 3 4 10 4 2 2v3l-5-1-4-3-5-2-3-6z" fill="#2D1213"/>
<path transform="translate(723,554)" d="m0 0h10v2l-16 6-4-2z" fill="#532C2A"/>
<path transform="translate(938,246)" d="m0 0 5 1 4 4 7 1-3 3h-9l-4-7z" fill="#DEDEDE"/>
<path transform="translate(460,975)" d="m0 0 4 2 10 10 5 3 3 2v3l4 1v3l-4-2-16-15z" fill="#471D1D"/>
<path transform="translate(438,958)" d="m0 0 1 3 7 1 3 3-1 5h-4l-7-10z" fill="#E5AD78"/>
<path transform="translate(138,821)" d="m0 0h3 1l1 6v11l-2-1-3-9-2-1 1-5z" fill="#BCBEC0"/>
<path transform="translate(780,786)" d="m0 0 1 2 3-1 1 3-2 7 2 1-3 1-1 2 2 1-1 6h-1v-5l-3-1 1-5z" fill="#3E1919"/>
<path transform="translate(910,619)" d="m0 0 10 2 9 3 16 5 1 2-8-1-2-2-10-2-2-2-12-2z" fill="#354984"/>
<path transform="translate(714,292)" d="m0 0h1v6h2l4 11 3 7-2 3-3-7-3-3-1-6 1-2h-2z" fill="#CFCFCE"/>
<path transform="translate(94,863)" d="m0 0 2 2 2 7 8 1 3 3-4 1-9-3-4-6z" fill="#898B90"/>
<path transform="translate(318,738)" d="m0 0h1l2 10h-2l1 5-4 3-2-10h2v-6z" fill="#C7C7C8"/>
<path transform="translate(123,711)" d="m0 0 4 5 2 7-2 2-3-1-4-6 2-4z" fill="#BBBCBF"/>
<path transform="translate(278,703)" d="m0 0h8l12 4-1 2h-7l-5-2-9-2z" fill="#CFD0D0"/>
<path transform="translate(688,591)" d="m0 0 5 5 3 1 11 1v1h-27l3-2 2-2h3z" fill="#481E1E"/>
<path transform="translate(940,345)" d="m0 0 11 2 14 1v2l-5-1v2h-10l-9-4z" fill="#88909F"/>
<path transform="translate(763,930)" d="m0 0h1v28l-4 1v-15h1l1 5z" fill="#E3E3E3"/>
<path transform="translate(272,817)" d="m0 0 4 1 3 3v8h-4l-1-4-3-5z" fill="#C6C8CA"/>
<path transform="translate(125,754)" d="m0 0 2 4 4 10-1 3 2 6-3-1-2-12-4-1v-5l-2-1z" fill="#7D8595"/>
<path transform="translate(49,697)" d="m0 0h18l9 1 2 2-12 1-17-3z" fill="#898E98"/>
<path transform="translate(938,409)" d="m0 0 10 1 5 1v2h-7l-8-2 4 6-4 3-2-3 1-7z" fill="#A0A7B5"/>
<path transform="translate(801,378)" d="m0 0 11 1 15 3v1l-13 1-1-1-8-1v-2z" fill="#787F90"/>
<path transform="translate(853,153)" d="m0 0 4 2 6 7 2 5h-5l-7-12z" fill="#D1D2D3"/>
<path transform="translate(484,129)" d="m0 0h43l3 2-5 3-1-3h-39z" fill="#20387E"/>
<path transform="translate(78,927)" d="m0 0v3 3l4 1 4 3v2l-4-1-5-1-2 1v-5l-3-1z" fill="#CECECE"/>
<path transform="translate(353,910)" d="m0 0 10 6 6 1v2l-6 1-1 3v-2h-2l-7-9z" fill="#2A1214"/>
<path transform="translate(400,881)" d="m0 0 2 1 1 3v11l-3 6-3-1 2-7z" fill="#F5EDE7"/>
<path transform="translate(289,855)" d="m0 0h11l8 3-1 3-10-2-8-2z" fill="#C8C8C8"/>
<path transform="translate(798,755)" d="m0 0 1 2-7 14-4 2-3-1 6-8 3-2 3-6z" fill="#3B1C20"/>
<path transform="translate(927,441)" d="m0 0 5 2 12 5 8 2h6l-1 2h-10l-13-5-7-4z" fill="#C0C1C2"/>
<path transform="translate(772,259)" d="m0 0 8 1 2 3 9 2v2l-7-1-6-3-5-1v2l-7-1 1-3z" fill="#D4D5D5"/>
<path transform="translate(751,254)" d="m0 0h8l6 2-1 3 2 1-14-2-3-1v-2z" fill="#CECECD"/>
<path transform="translate(922,234)" d="m0 0 9 1-1 4 3 2-9-1-4-1h-4v-2l6-1z" fill="#7B8498"/>
<path transform="translate(927,158)" d="m0 0h15l10 2-3 1v2l-12-2-10-2z" fill="#D8DADE"/>
<path transform="translate(118,796)" d="m0 0 5 3 1 6-5-2h-9l3-3z" fill="#C9CBCD"/>
<path transform="translate(685,782)" d="m0 0 2 1-4 6-7 6-3 1 2-5 5-6z" fill="#1D0E13"/>
<path transform="translate(742,563)" d="m0 0h7l11 3v3l-14-2-4-2z" fill="#140809"/>
<path transform="translate(772,283)" d="m0 0 6 1 3 4-1 5-4 1-2-7z" fill="#B8BABF"/>
<path transform="translate(946,241)" d="m0 0 6 3 3 3 2-4 1 2v8l-7-3-1-3-3-1z" fill="#85888F"/>
<path transform="translate(721,922)" d="m0 0h1l1 9v20h-1l-1-6h-1v-16z" fill="#D2D2D1"/>
<path transform="translate(136,827)" d="m0 0 3 1 4 11 1 8 3 5-4-2-1-5h-2l-1-10-3-2z" fill="#86898F"/>
<path transform="translate(742,688)" d="m0 0 2 1-1 8-3 12h-2v-8l3-12z" fill="#1B0B0C"/>
<path transform="translate(753,400)" d="m0 0 9 1h8l4 2-5 3-15-4z" fill="#B2B5BB"/>
<path transform="translate(797,386)" d="m0 0 7 1 8 1 3-1 7 3-3 2-13-2-9-3z" fill="#D2D2D1"/>
<path transform="translate(729,340)" d="m0 0 3 4 4 8 2 1-1 4h-3l-3-3 1-5h-2z" fill="#A8ACB4"/>
<path transform="translate(897,263)" d="m0 0 4 3 3 3 4 1 2-1v7l-3 1v-2l-3-1-1-4-4-2-3-4z" fill="#87898F"/>
<path transform="translate(163,857)" d="m0 0 4 3v13h-1l-1-5-4 1v-7z" fill="#CFCFCF"/>
<path transform="translate(81,790)" d="m0 0h9v1l-5 1v6l3 3-1 3-5-2-2-5 3-6z" fill="#81858F"/>
<path transform="translate(332,918)" d="m0 0 5 3 5 7-1 2h-3l-3-4v-2h-3l-1-4z" fill="#7584A3"/>
<path transform="translate(657,827)" d="m0 0 5 2 8 8-3 3-9-9z" fill="#281011"/>
<path transform="translate(796,684)" d="m0 0 12 1 1 3-4 1h-7l-6-3z" fill="#471D1D"/>
<path transform="translate(1e3 424)" d="m0 0 11 1 15 3 1 2-13-1-10-2z" fill="#808899"/>
<path transform="translate(987,417)" d="m0 0 21 4v2h-14l-5-1z" fill="#A6ABB5"/>
<path transform="translate(747,277)" d="m0 0h2l-1 6-1 4 2 1-2 5-3 3v-12l1-6z" fill="#798194"/>
<path transform="translate(949,161)" d="m0 0 12 1 6 2-1 3-11-2-6-2z" fill="#E9EAEB"/>
<path transform="translate(360,921)" d="m0 0h2l2 10v8l-4-1z" fill="#482224"/>
<path transform="translate(589,916)" d="m0 0 2 1 2 11v5l-2 1v-4h-2l-1-5v-8z" fill="#271011"/>
<path transform="translate(594,838)" d="m0 0 3 1 2 2-10 5-6 1 1-3z" fill="#23161B"/>
<path transform="translate(129,716)" d="m0 0 3 4 4 9v6l-4-4-2-5z" fill="#888A8E"/>
<path transform="translate(136,710)" d="m0 0 3 3 4 10 1 10-2 1-2-10-4-10z" fill="#C5C6C6"/>
<path transform="translate(787,176)" d="m0 0h9l11 3v1h-14l-6-2z" fill="#A2A7B3"/>
<path transform="translate(308,723)" d="m0 0h3l4 6 1 8-1 2-7-13z" fill="#6F7D9E"/>
<path transform="translate(312,749)" d="m0 0h1v9l-1 5h-2l-3-4 1-5z" fill="#A0A3A8"/>
<path transform="translate(818,726)" d="m0 0v3l-9 5h-4l-1 2 1-5 8-4z" fill="#35191B"/>
<path transform="translate(291,715)" d="m0 0 7 1 7 5 2 3 2 6-10-10-5-1-3-2z" fill="#898C93"/>
<path transform="translate(986,647)" d="m0 0 9 3 14 8-3 2-5-3v-2l-6-1-9-5z" fill="#293E7C"/>
<path transform="translate(711,236)" d="m0 0 2 1v2h2l5 6 8 4 5 2 1 3-9-3-9-7-2-4h-2z" fill="#FBFBFB"/>
<path transform="translate(865,209)" d="m0 0 6 5 5 5 5 8-1 2-12-14-3-4z" fill="#C2C3C4"/>
<path transform="translate(923,207)" d="m0 0 20 1v2h-2v2l-9-1-9-2z" fill="#888A8E"/>
<path transform="translate(156,321)" d="m0 0 2 1-7 8h-2v3l-7 6-1 2-3-1 6-7h2l2-4h2l2-4h2z" fill="#20387E"/>
<path transform="translate(932,236)" d="m0 0 12 1 6 1v1l-10 3-3-2-4-1-2-2z" fill="#8A8E98"/>
<path transform="translate(828,172)" d="m0 0 3 4 5 7 6 4-2 2-8-6-6-8v-2z" fill="#898B8F"/>
<path transform="translate(291,770)" d="m0 0 8 1 1 5-1 1h-5v-2h-4z" fill="#63739B"/>
<path transform="translate(284,708)" d="m0 0 3 1v2l4 2v3l-10-3-8-2v-1h10z" fill="#A0A5B0"/>
<path transform="translate(686,683)" d="m0 0 2 4-1 2-8 2-3-1 2-4 7-2z" fill="#451C1C"/>
<path transform="translate(874,1184)" d="m0 0h2v16h-3v-15z" fill="#252333"/>
<path transform="translate(286,937)" d="m0 0 11 1 7 2 5 2v1l-8-1-14-3z" fill="#7687A7"/>
<path transform="translate(93,860)" d="m0 0h9v1l-5 1v2l2 1 1 4h-4l-2-5h-3l-1 3-1-4z" fill="#BBBEC4"/>
<path transform="translate(907,620)" d="m0 0 5 1 12 2 2 4-10-2-10-3z" fill="#311414"/>
<path transform="translate(785,353)" d="m0 0h14l7 2v2h6v1h-7l-12-3-8-1z" fill="#D2D2D1"/>
<path transform="translate(220,289)" d="m0 0m-1 1m-1 1m-1 1m-1 1m-1 1m-1 1m-1 1m-1 1m-1 1m-1 1m-1 1m-1 1m-1 1m-1 1m-1 1m-1 1m-2 1 2 1-14 14 1-4z" fill="#273E81"/>
<path transform="translate(710,863)" d="m0 0 6 1 3-1v10l-3-4-8-3z" fill="#1A0C0E"/>
<path transform="translate(314,786)" d="m0 0 2 2 2-1-1 9-5-2-2-2v-3z" fill="#898E9A"/>
<path transform="translate(750,344)" d="m0 0 9 2 8 4v2l-12-3-5-3z" fill="#E3E4E6"/>
<path transform="translate(788,259)" d="m0 0h8l14 3 1 2-3 1-12-2v-2l-8-1z" fill="#575D7F"/>
<path transform="translate(426,939)" d="m0 0 2 1 3 12-1 2-3-3-2-4v-7z" fill="#281213"/>
<path transform="translate(361,861)" d="m0 0h5l-5 5-5 6h-1v-6l3-4z" fill="#3C1F22"/>
<path transform="translate(294,799)" d="m0 0 5 2 5 8-1 3-5-4-3-4z" fill="#D2D3D4"/>
<path transform="translate(783,782)" d="m0 0 3 1h-2l2 4 4 1 2-1-1 5-1-2h-3v5l-4 2 1-9-1-1z" fill="#CB9D7F"/>
<path transform="translate(784,677)" d="m0 0 12 6v2h-6l-7-5z" fill="#1C0C0C"/>
<path transform="translate(405,487)" d="m0 0h30v1l-24 1-4 2-4-2z" fill="#384D8A"/>
<path transform="translate(749,394)" d="m0 0 9 3 8 3-4 2-9-2-4-4z" fill="#838896"/>
<path transform="translate(938,375)" d="m0 0h10l-4 2 3 3-1 2-6-1z" fill="#6A799A"/>
<path transform="translate(811,350)" d="m0 0 11 1 5 1-2 3-13-2-3-2z" fill="#757E95"/>
<path transform="translate(827,187)" d="m0 0 7 6 6 4-1 2-6-2-4-3-3-6z" fill="#D2D2D1"/>
<path transform="translate(401,901)" d="m0 0 2 1-1 5-6 11-1-3 2-8z" fill="#371617"/>
<path transform="translate(129,872)" d="m0 0 2 2h7l-1 3-9 3h-3l-1-4h5z" fill="#7585A6"/>
<path transform="translate(319,867)" d="m0 0 5 2 10 10 2 4h-4l-2-5-8-6v-2l-3-1z" fill="#7789AC"/>
<path transform="translate(687,587)" d="m0 0h3l-2 8-5 1-1-4 2-4z" fill="#EFE0D5"/>
<path transform="translate(718,337)" d="m0 0h1l1 13 1 2v7l-3-4-1-5v-12z" fill="#C2C3C4"/>
<path transform="translate(176,913)" d="m0 0h4v3l16 3v1h-7l-13-3z" fill="#C0C1C2"/>
<path transform="translate(689,790)" d="m0 0 4 2 1 11h-3-1l-1-5z" fill="#3F1919"/>
<path transform="translate(92,767)" d="m0 0 5 1-2 1v2h-12l-2-2 2-1h8z" fill="#CED0D5"/>
<path transform="translate(769,654)" d="m0 0 2 4v3l-12 1v-3l3-1h7z" fill="#391B1F"/>
<path transform="translate(786,354)" d="m0 0h7l8 3v2l-9-1-6-2z" fill="#E0E2E6"/>
<path transform="translate(77,936)" d="m0 0 6 2 4 4v1l-8-1-3-3z" fill="#FBFBFB"/>
<path transform="translate(127,752)" d="m0 0 1 2h2l2 6v2h-2l-1 3-3-7v-5z" fill="#BDBEC0"/>
<path transform="translate(809,692)" d="m0 0 3 1h-2v2h-2v2l-9 2 1-4z" fill="#250F10"/>
<path transform="translate(1030,678)" d="m0 0 4 1 3 5v4h-3l-5-7z" fill="#1F1825"/>
<path transform="translate(812,592)" d="m0 0 5 3 8 7-1 4-5-3-4-7-3-2z" fill="#160D12"/>
<path transform="translate(974,381)" d="m0 0 4 2v5l-4 4h-8v-1h7l1-6-2-1 2-1z" fill="#A3A7B0"/>
<path transform="translate(207,363)" d="m0 0h1l1 30-3-4z" fill="#233A7F"/>
<path transform="translate(745,337)" d="m0 0 8 4 5 2v1l-9 1-4-5z" fill="#ABADB1"/>
<path transform="translate(726,303)" d="m0 0 2 3 6 11 1 4h-4l-1-2v-4l-2-2-2-6-1-2z" fill="#ABAEB3"/>
<path transform="translate(907,154)" d="m0 0h12l7 1v3l-11-1-8-2z" fill="#DEE0E4"/>
<path transform="translate(439,958)" d="m0 0h7l5 3-3 4-2-2-7-2z" fill="#47252D"/>
<path transform="translate(239,889)" d="m0 0 5 1v2l2 1-5 2-6-1z" fill="#9A9DA2"/>
<path transform="translate(670,710)" d="m0 0 5 1 3 3 1 4h-4l-5-6z" fill="#421B1B"/>
<path transform="translate(734,389)" d="m0 0h2l3 3 9 6v2l-5-1-9-8z" fill="#7886A1"/>
<path transform="translate(805,259)" d="m0 0h7l4 2-3 4-4-1 1-1-7-1 2-1z" fill="#A0A5AF"/>
<path transform="translate(113,208)" d="m0 0 4 2 7 8v2h-2v-2l-6-2-3-6z" fill="#69DAFA"/>
<path transform="translate(730,206)" d="m0 0 2 1v2l3 1v2l3 1 5 4-5-1-6-3h-3v-6z" fill="#CCCDCE"/>
<path transform="translate(904,153)" d="m0 0h10l-1 2 2 2-1 1h-7l-4-2z" fill="#9097A6"/>
<path transform="translate(660,805)" d="m0 0h3l-2 5-4 6h-3v-3z" fill="#1F1318"/>
<path transform="translate(756,379)" d="m0 0 12 2 5 2-4 1-3-1v2l-7-2-3-2z" fill="#DBDCDC"/>
<path transform="translate(374,169)" d="m0 0 2 2-10 9-8 8-2-1z" fill="#20387E"/>
<path transform="translate(427 1e3)" d="m0 0v3l-9 8-3-1 3-5 8-4z" fill="#411A1B"/>
<path transform="translate(433,992)" d="m0 0 2 1-6 9-5 4h-2l2-4z" fill="#1D0C0D"/>
<path transform="translate(138,949)" d="m0 0 6 1 2 1 2-2v6l-3 1-1-3-7-1z" fill="#C4C6C9"/>
<path transform="translate(559,883)" d="m0 0 2 1-3 12-2-1-1-5 2-6z" fill="#331515"/>
<path transform="translate(574,857)" d="m0 0v3l-5 7-5 2 2-5 4-5h2z" fill="#391F22"/>
<path transform="translate(680,737)" d="m0 0 3 2 3 16-2 1-4-13z" fill="#161118"/>
<path transform="translate(672,601)" d="m0 0 1 2-3 7-5 5 1-7 3-6z" fill="#2D171C"/>
<path transform="translate(722,563)" d="m0 0h10l-4 4h-6v-2l-6 1 2-2z" fill="#1D0C0D"/>
<path transform="translate(770,251)" d="m0 0 12 2 3 3h-9l-5-1 1-3z" fill="#AEB1B9"/>
<path transform="translate(760,209)" d="m0 0 12 2 5 1v1l-9 1-10-2z" fill="#ABAFB7"/>
<path transform="translate(744,208)" d="m0 0 19 4-1 2-12-1-1-2-5-1z" fill="#77829A"/>
<path transform="translate(97,861)" d="m0 0h7l2 3v3l-7-2-3-1z" fill="#EFEFEF"/>
<path transform="translate(329,822)" d="m0 0h2v3l1-3 2 1-4 8-4 4-1-2z" fill="#C4C5C5"/>
<path transform="translate(926,311)" d="m0 0 7 1v3l-5 4-1-2-2-1h2z" fill="#BABCBE"/>
<path transform="translate(793,219)" d="m0 0 15 2v2h-11l-5-2z" fill="#646B89"/>
<path transform="translate(905,202)" d="m0 0 13 2 5 2-1 2-8-1-9-4z" fill="#898B8F"/>
<path transform="translate(791,180)" d="m0 0h14l-4 4-10-2z" fill="#7B869E"/>
<path transform="translate(961,167)" d="m0 0 6 1 8 6 1 6-4-5-8-5-3-1z" fill="#57536C"/>
<path transform="translate(268,817)" d="m0 0 2 1-2 7 2 1-4 1-2-2 1-5z" fill="#ABAEB5"/>
<path transform="translate(276,796)" d="m0 0h7l7 3 2 6-4-2-1-2-11-4z" fill="#89909E"/>
<path transform="translate(283,795)" d="m0 0 8 1 4 3 1 3h-3l-7-4-3-1z" fill="#B9BABB"/>
<path transform="translate(79,791)" d="m0 0h4l-2 6-3 3h-2l1-7z" fill="#D1D3D7"/>
<path transform="translate(315,758)" d="m0 0 3 1 2 10-2 2-2-7-2-1z" fill="#7688AB"/>
<path transform="translate(283,707)" d="m0 0 7 1 6 3-5 4-4-4v-2h-4z" fill="#5C6991"/>
<path transform="translate(731,570)" d="m0 0h9l3 2-12 1v1h-7l1-3z" fill="#170A0A"/>
<path transform="translate(581,490)" d="m0 0h1v6h-10v-3l8-2z" fill="#21397E"/>
<path transform="translate(189,319)" d="m0 0 1 3h-2l-2 4-7 6-3 3-2-1z" fill="#2C4384"/>
<path transform="translate(436,282)" d="m0 0 4 2h6l5-2-1 3-7 4-7-6z" fill="#2F4482"/>
<path transform="translate(883,214)" d="m0 0 4 2 1 3 5 3-1 4-2-1v-2l-4-2-3-4z" fill="#8B8C90"/>
<path transform="translate(485,184)" d="m0 0h3l-2 4-8 8-1-2-2-1 5-2 1-3h2z" fill="#263D81"/>
<path transform="translate(696,180)" d="m0 0 4 5 2 2v4l3 1 2 5-7-6-4-8z" fill="#C2C3C4"/>
<path transform="translate(404 1e3)" d="m0 0h4l3 5v5l-4-2-3-6z" fill="#2A1112"/>
<path transform="translate(536,969)" d="m0 0 1 3-3 12-2-1-1-7 2-3z" fill="#462225"/>
<path transform="translate(104,834)" d="m0 0 9 2 5 1 1 4-7-1-8-5z" fill="#838890"/>
<path transform="translate(1034,712)" d="m0 0 1 4-4 8-3 1 1-6 2-4z" fill="#190F15"/>
<path transform="translate(811,709)" d="m0 0 4 1-4 5-5 2-1-2 4-5z" fill="#471D1D"/>
<path transform="translate(776,663)" d="m0 0 4 1 4 4v4h-3l-5-8z" fill="#DBA271"/>
<path transform="translate(737,598)" d="m0 0 8 1 3 2-5 2-12-2v-1l6-1z" fill="#2E1313"/>
<path transform="translate(762,213)" d="m0 0 10 1 5 1 2 3-9-1-8-2z" fill="#6D7792"/>
<path transform="translate(499,1011)" d="m0 0 5 2 6 4 5 6h-3l-13-11z" fill="#471D1D"/>
<path transform="translate(245,930)" d="m0 0h2l1 3 9 2v1h-9l-8-1z" fill="#ACB0B7"/>
<path transform="translate(395,910)" d="m0 0h2l-3 12-2 3-2-4z" fill="#240F0F"/>
<path transform="translate(73,733)" d="m0 0h7v2l3 2h-10l-3-3z" fill="#B0B2B7"/>
<path transform="translate(298,628)" d="m0 0 9 3-2 4-4-1-4-3z" fill="#D2D2D1"/>
<path transform="translate(738,475)" d="m0 0 5 2-1 5 4 2-6-1-4-5 2-1z" fill="#F5F5F5"/>
<path transform="translate(777,343)" d="m0 0 9 1 3 4-10-1-3-1z" fill="#87898F"/>
<path transform="translate(727,312)" d="m0 0 1 2 3 1v5l2 3h-2l-1 2-2-3-2-9z" fill="#858A95"/>
<path transform="translate(726,270)" d="m0 0 1 3-2 7-2 4-2-4 1-5z" fill="#777B8D"/>
<path transform="translate(936,274)" d="m0 0 12 1v2l-3 1h-9z" fill="#BFC1C3"/>
<path transform="translate(429,214)" d="m0 0 4 2v2l4 2v2l4 2 1 3-4-2-9-9z" fill="#425486"/>
<path transform="translate(922,207)" d="m0 0 1 2 9 1 9 2v1l-13-1-7-2-2-2z" fill="#C3C3C4"/>
<path transform="translate(531,980)" d="m0 0 2 3-1 8h-2l-1 2v-9z" fill="#1A0D0F"/>
<path transform="translate(448,962)" d="m0 0 5 1 5 6-4-1-3 1z" fill="#110708"/>
<path transform="translate(175,916)" d="m0 0 14 3 3 2-5 1v-1l-10-1z" fill="#888A8E"/>
<path transform="translate(385,902)" d="m0 0h2v5l-5 4h-4l2-4 5-1z" fill="#351516"/>
<path transform="translate(693,766)" d="m0 0 4 4 5 8-4 2v-3-3l-3-1-3-6z" fill="#461E20"/>
<path transform="translate(254,736)" d="m0 0 15 2 2 1v2h-6l-13-3z" fill="#6177A6"/>
<path transform="translate(85,665)" d="m0 0h12l-3 2-2 1 4 2-12-1 2-2z" fill="#828A9A"/>
<path transform="translate(719,626)" d="m0 0h6l-4 4-8 1 2-4z" fill="#2B1112"/>
<path transform="translate(791,575)" d="m0 0 7 4 6 5h-3l-5-1-3-5-2-1z" fill="#160C11"/>
<path transform="translate(720,572)" d="m0 0h4v2l2 1-10 2-3-2z" fill="#2B1112"/>
<path transform="translate(759,562)" d="m0 0 5 1 8 4-4 1h-5l-1-2-4-2z" fill="#C98F68"/>
<path transform="translate(980,417)" d="m0 0h6l5 4h-8l-6-2z" fill="#BBBDC0"/>
<path transform="translate(913,388)" d="m0 0 1 2h2l5 9h-3l-5-5-1-5z" fill="#888A8E"/>
<path transform="translate(753,371)" d="m0 0 6 1v2l3-1 2 2h-6l-5 1-3-1 1-3z" fill="#7685A4"/>
<path transform="translate(745,334)" d="m0 0 5 1 6 3-3 2-5-1-3-2z" fill="#3E4575"/>
<path transform="translate(732,250)" d="m0 0 4 1v2l9 1-4 2h-8z" fill="#D2D2D2"/>
<path transform="translate(911,243)" d="m0 0h2v2l9-2-3 5-4 1-4-3z" fill="#E5E7E9"/>
<path transform="translate(771,213)" d="m0 0h11l4 2h-2v2l-12-2z" fill="#BCBEC3"/>
<path transform="translate(299,932)" d="m0 0 8 1v2l2 2h-7l-5-2-2-2z" fill="#CFCFCE"/>
<path transform="translate(406,860)" d="m0 0 5 1 5 3-1 2-11-3 2-1z" fill="#401A1A"/>
<path transform="translate(965,811)" d="m0 0h4l-2 5-5 4-1-4z" fill="#201218"/>
<path transform="translate(271,792)" d="m0 0 13 2-1 2-9 1-2-1z" fill="#AEB1B7"/>
<path transform="translate(917,733)" d="m0 0v3l-13 13-2-1 7-8z" fill="#0D0B0C"/>
<path transform="translate(291,630)" d="m0 0 8 3-2 1-1 3-4-3-6 1v-2l4-1z" fill="#868992"/>
<path transform="translate(713,628)" d="m0 0 2 1v3l-6 4-4 2 2-5z" fill="#210E0E"/>
<path transform="translate(799,381)" d="m0 0 16 1v4l-13-3z" fill="#7B8AA8"/>
<path transform="translate(799,218)" d="m0 0h9l5 1-4 3-10-2z" fill="#9EA6B7"/>
<path transform="translate(68,933)" d="m0 0h3v6l2 4h-2l1 2-4-2z" fill="#D2D1D1"/>
<path transform="translate(555,892)" d="m0 0 2 3-1 8-3 1v-7z" fill="#1C0D10"/>
<path transform="translate(399,883)" d="m0 0h1v11l-1 3-4 1-2 1 2-4 3-5z" fill="#140809"/>
<path transform="translate(624,829)" d="m0 0 5 1-4 3-10 1 2-3h5z" fill="#1A0B0B"/>
<path transform="translate(799,749)" d="m0 0h1v5l-4 5-3 5-1-2 6-12z" fill="#16090A"/>
<path transform="translate(790,685)" d="m0 0 9 3h6l2 2-6 1-8-3z" fill="#CC8F65"/>
<path transform="translate(692,676)" d="m0 0 1 4-4 6h-2v-5z" fill="#1A0B0B"/>
<path transform="translate(84,665)" d="m0 0 5 2 4 4-11-1-2-2z" fill="#C6C7C8"/>
<path transform="translate(663,627)" d="m0 0 1 4-3 12h-1l-1-11h2z" fill="#4B272C"/>
<path transform="translate(724,604)" d="m0 0 2 2 1 10-4-4v-7z" fill="#250F10"/>
<path transform="translate(740,402)" d="m0 0 5 2 12 5 2 2-9-2-10-6z" fill="#FBFBFB"/>
<path transform="translate(949,375)" d="m0 0 10 2v1l-8 1-2 1-7-3 4-1z" fill="#A6ABB4"/>
<path transform="translate(173,335)" d="m0 0h2l-1 3h-2l-2 4h-2l-2 4-4 1 6-7z" fill="#2A4183"/>
<path transform="translate(767,282)" d="m0 0h6l1 4 2 3v3l-4-2-2-4v-3z" fill="#4B4255"/>
<path transform="translate(799,263)" d="m0 0 14 2-2 2h-8l-4-2z" fill="#C1C2C3"/>
<path transform="translate(796,257)" d="m0 0h7l2 1v3l-9-1-3-2z" fill="#ADB1BB"/>
<path transform="translate(622,188)" d="m0 0 4 2v10l-3-1 1-2-2-5z" fill="#888A8E"/>
<path transform="translate(416,1009)" d="m0 0m-2 1 2 1-1 4-4 2-2-4 1-2z" fill="#4D2727"/>
<path transform="translate(550,918)" d="m0 0 1 3-2 7-4 1 1-7z" fill="#251317"/>
<path transform="translate(220,720)" d="m0 0h9l4 1v2h7v1h-10l-4-2-6-1z" fill="#DFDFDE"/>
<path transform="translate(1009,659)" d="m0 0 9 5 1 2-5 1-5-6z" fill="#1F2951"/>
<path transform="translate(853,656)" d="m0 0 10 3-4 3-6-3z" fill="#CA8E66"/>
<path transform="translate(653,649)" d="m0 0h2l1 3-2 3h-6l2-4z" fill="#1A1116"/>
<path transform="translate(484,123)" d="m0 0 1 3 21 1v1h-23z" fill="#69DAFA"/>
<path transform="translate(447,974)" d="m0 0 1 4-2 4-4 1 1-5z" fill="#170A0A"/>
<path transform="translate(132,877)" d="m0 0h5v3l-4 2-5-1z" fill="#777D8E"/>
<path transform="translate(567,867)" d="m0 0 1 2-4 6-3 2 1-7z" fill="#392427"/>
<path transform="translate(106,865)" d="m0 0 4 5 1 3-6-2-3-5 4 1z" fill="#CBCCCF"/>
<path transform="translate(154,856)" d="m0 0h2l3 6v8l-2-2z" fill="#888A8E"/>
<path transform="translate(292,765)" d="m0 0 5 3 1 5-1-2-4-1-6-2v-1h5z" fill="#B7B9BE"/>
<path transform="translate(104,731)" d="m0 0 3 1 1 7h-3l-3-5v-2z" fill="#B9BBBE"/>
<path transform="translate(277,728)" d="m0 0 6 1 5 3-1 2-9-2z" fill="#EEEFF0"/>
<path transform="translate(684,689)" d="m0 0 2 1v7l-6-1 1-4z" fill="#F3BE83"/>
<path transform="translate(998,656)" d="m0 0 7 2 4 1 3 4-1 2-13-8z" fill="#291111"/>
<path transform="translate(749,604)" d="m0 0 8 2v2l2 1h-8l-4-2 2-2z" fill="#471D1D"/>
<path transform="translate(745,556)" d="m0 0h10l5 2-3 3-12-4z" fill="#3F1D21"/>
<path transform="translate(742,480)" d="m0 0h5l5 4-4 2-4-2z" fill="#CECECE"/>
<path transform="translate(819,387)" d="m0 0h7l3 2-2 2-9-1z" fill="#C2C3C4"/>
<path transform="translate(937,376)" d="m0 0 2 1 1 3 6 2-4 2-6-2v-5z" fill="#CACBCB"/>
<path transform="translate(749,277)" d="m0 0h2l-1 12-4-1 1-5z" fill="#C0C1C2"/>
<path transform="translate(755,250)" d="m0 0 15 1 2 1v2l-9-1-8-2z" fill="#CACACA"/>
<path transform="translate(186,947)" d="m0 0 9 1-3 2 1 3 3 2v2l-4-2-3-5v-2z" fill="#7A7D8D"/>
<path transform="translate(400,881)" d="m0 0 2 1 1 3v11h-1l-1-5h-1z" fill="#C1A38F"/>
<path transform="translate(289,855)" d="m0 0h11v4l-11-2z" fill="#CBCBCB"/>
<path transform="translate(788,774)" d="m0 0 4 1v3l-1 2h-5l1-4z" fill="#E4DAD2"/>
<path transform="translate(724,743)" d="m0 0 15 2v1h-14l-2-1v5h-1v-6z" fill="#441E23"/>
<path transform="translate(281,700)" d="m0 0 11 1 4 2v1l-9-1-6-1z" fill="#BCBCBD"/>
<path transform="translate(961,638)" d="m0 0 7 1 5 5-6-1-6-3z" fill="#210E0E"/>
<path transform="translate(722,567)" d="m0 0 7 1-2 1v2l-11 1 2-3z" fill="#F5F1EE"/>
<path transform="translate(744,559)" d="m0 0h10l5 2-2 2-11-2z" fill="#BF9477"/>
<path transform="translate(956,384)" d="m0 0 9 1 8 3-1 2-16-5z" fill="#CBCCCB"/>
<path transform="translate(718,305)" d="m0 0 3 4 3 7-2 3-4-8z" fill="#C0C1C2"/>
<path transform="translate(890,256)" d="m0 0 8 3 1 4-7-2z" fill="#898B8F"/>
<path transform="translate(737,166)" d="m0 0h8l6 2 2 3-16-4z" fill="#AEB1B8"/>
<path transform="translate(762,866)" d="m0 0h1v13l-3 4v-10h1z" fill="#D3D3D2"/>
<path transform="translate(301,809)" d="m0 0 4 2 1 6-3 1-3-8z" fill="#C2C3C3"/>
<path transform="translate(127,762)" d="m0 0 3 3 1 5-1 1 2 6-3-1-2-12z" fill="#888A8E"/>
<path transform="translate(123,711)" d="m0 0 4 5 2 7-2 2-3-7-2-4z" fill="#7F8696"/>
<path transform="translate(238,625)" d="m0 0 7 1 8 2-4 1-3 1-4-1-1-2z" fill="#7283A5"/>
<path transform="translate(719,560)" d="m0 0 2 1-3 4-10 2 3-3z" fill="#CD9268"/>
<path transform="translate(585,275)" d="m0 0 3 1 1 7h-4z" fill="#888A8E"/>
<path transform="translate(921,860)" d="m0 0 3 1-2 4-4 2v-4z" fill="#281111"/>
<path transform="translate(308,858)" d="m0 0 8 1 1 2-10 1z" fill="#D3D3D2"/>
<path transform="translate(297,823)" d="m0 0 1 2v7l3 1-1 2-5-1 1-10z" fill="#6E7C9D"/>
<path transform="translate(989,786)" d="m0 0v3l-5 6-3-1 2-4z" fill="#211117"/>
<path transform="translate(716,657)" d="m0 0 9 1v2h-11z" fill="#190B0B"/>
<path transform="translate(958,635)" d="m0 0 10 3v1l-7-1v2l-7-2z" fill="#312C4E"/>
<path transform="translate(663,619)" d="m0 0h1v8l-3 8h-1l1-10z" fill="#0F0C14"/>
<path transform="translate(723,559)" d="m0 0 5 2v2l-10 1z" fill="#E7D4C7"/>
<path transform="translate(60,309)" d="m0 0 13 3v1h-10l-4 1z" fill="#69DAFA"/>
<path transform="translate(713,226)" d="m0 0 5 1 1 4-1 2h-2v-2h-2l-2-4z" fill="#848EA2"/>
<path transform="translate(879,220)" d="m0 0 6 5 2-2v6l-5-2-3-4z" fill="#FBFBFB"/>
<path transform="translate(904,203)" d="m0 0 9 2v3l-4 1z" fill="#BFC0C1"/>
<path transform="translate(273,198)" d="m0 0 5 3-4 2-6 1 3-5z" fill="#2A4081"/>
<path transform="translate(601,1066)" d="m0 0 3 4-1 7-2-4h-2z" fill="#0A0506"/>
<path transform="translate(343,883)" d="m0 0h6l-2 8-3 3z" fill="#482F3C"/>
<path transform="translate(129,866)" d="m0 0 6 3v4l-5-2-2-1z" fill="#C9CACB"/>
<path transform="translate(773,856)" d="m0 0m-1 1m-2 1 2 1-6 7h-1v-7z" fill="#0A0506"/>
<path transform="translate(398,857)" d="m0 0 6 1 2 1v3l-7-1z" fill="#1A0B0C"/>
<path transform="translate(413,853)" d="m0 0 4 4v5l-3-1-2-6z" fill="#2C1516"/>
<path transform="translate(152,855)" d="m0 0h2l1 7-4 2-1-4 2-2z" fill="#B6B8BB"/>
<path transform="translate(802,726)" d="m0 0 4 1-2 5h-2l-1 3v-8z" fill="#471D1D"/>
<path transform="translate(780,670)" d="m0 0 4 4 1 3-3 2-3-4z" fill="#391718"/>
<path transform="translate(770,655)" d="m0 0 4 4 3 6-5-1-2-7z" fill="#0A0506"/>
<path transform="translate(897,615)" d="m0 0 13 3v1h-9l-4-2z" fill="#283E80"/>
<path transform="translate(746,601)" d="m0 0 7 1 2 1-1 3-9-3z" fill="#100708"/>
<path transform="translate(716,569)" d="m0 0 2 1-2 1zm5 1h4v2l-8 2h-4v-2z" fill="#F0D4BF"/>
<path transform="translate(744,553)" d="m0 0 10 3-3 1-12-1 2-2z" fill="#1F0D0E"/>
<path transform="translate(1e3 424)" d="m0 0 11 1 4 2-4 1-7-1z" fill="#7C889F"/>
<path transform="translate(937,411)" d="m0 0 5 5-4 4-2-3v-5z" fill="#B0B3BA"/>
<path transform="translate(744,406)" d="m0 0 6 2 7 3-4 1-10-4z" fill="#C6C7C7"/>
<path transform="translate(746,393)" d="m0 0 4 2v2l3 3-5-1-5-5z" fill="#BBBCBE"/>
<path transform="translate(727,347)" d="m0 0 2 2v3h2l3 4v2h-2v-2l-5-2z" fill="#7C889F"/>
<path transform="translate(785,345)" d="m0 0 10 1 2 2-1 1h-6z" fill="#7E889B"/>
<path transform="translate(147,333)" d="m0 0h2l-1 4-5 4-2-2z" fill="#445992"/>
<path transform="translate(756,310)" d="m0 0 6 1 1 2-2 1v2l-4-2-2-2z" fill="#868990"/>
<path transform="translate(319,250)" d="m0 0 3 1-10 10v-3z" fill="#F6BB79"/>
</svg>
